<svg width="202" height="272" xmlns="http://www.w3.org/2000/svg" xmlns:xlink="http://www.w3.org/1999/xlink" xml:space="preserve" overflow="hidden"><defs><clipPath id="clip0"><rect x="973" y="68" width="202" height="272"/></clipPath></defs><g clip-path="url(#clip0)" transform="translate(-973 -68)"><path d="M-6900.85-3781.41C-6889.42-3783.92-6882.64-3783.92-6878.81-3787.83-6874.98-3791.72-6874.28-3798.42-6872.69-3803.57-6871.82-3806.42-6863.23-3809.01-6854.9-3808.61-6848.11-3808.28-6841.28-3805.41-6840.74-3803.57-6839.57-3799.5-6837.67-3782.03-6831.45-3779.35-6825.24-3776.67-6820.41-3777.62-6816.61-3771.21-6812.81-3764.8-6800.33-3738.69-6800.33-3732.6-6800.33-3726.51-6913.82-3729.87-6913.82-3729.87-6913.82-3729.87-6912.28-3778.89-6900.85-3781.41Z" fill="#FFFFFF" transform="matrix(1 0 0 1.0007 7939.03 3971.13)"/><path d="M-6954.12-3634.69C-6961.37-3635.06-6958.19-3644.66-6958.68-3649.41-6958.41-3660.94-6958.37-3672.14-6957.92-3683.8-6956.61-3734.88-6945.04-3774.5-6890.78-3788.69L-6890.78-3788.69C-6887.92-3789.48-6884.5-3789.91-6882.1-3791.64-6880.46-3792.73-6880.57-3794.87-6879.9-3796.59-6879.14-3798.37-6877.06-3799.99-6875.07-3799.5-6872.95-3803.2-6873.14-3798.77-6873.09-3796.92-6873.08-3796.87-6873.05-3796.83-6873.01-3796.8-6868.83-3794.64-6862.42-3794.45-6858.43-3793.8-6852.43-3793-6846.3-3793.77-6840.33-3794.2L-6840.33-3794.2C-6840.17-3794.21-6840.12-3794.26-6840.12-3794.3-6840.12-3794.32-6840.15-3794.36-6840.17-3794.41-6840.71-3795.7-6840.22-3798.79-6838.32-3797.75-6837.64-3797.12-6837.52-3796.13-6836.81-3795.54-6832.46-3797.48-6831.6-3792.4-6830.72-3788.64-6830.44-3787.14-6830.12-3785.54-6829.03-3784.41-6828.16-3783.64-6828.1-3782.23-6828.86-3781.37-6799.56-3779.95-6798.73-3761.77-6792.92-3738.32L-6792.92-3738.31C-6785.64-3708.91-6779.09-3679.09-6772.02-3649.69L-6772.02-3649.69C-6770.01-3644.14-6772.9-3642.03-6778.26-3641.79-6784.47-3641.24-6792.12-3638.61-6797.72-3642.15-6797.79-3641.69-6797.88-3641.18-6797.94-3640.72-6797.6-3638.17-6800.36-3635.55-6802.65-3637.47L-6802.65-3637.47C-6825.06-3636.4-6853.33-3636.15-6872.14-3635.96-6883.48-3635.9-6896.56-3635.87-6907.26-3636.24-6910.61-3636.49-6913.87-3636.24-6916.96-3637.32-6917.62-3636.76-6918.81-3637.01-6918.96-3637.95-6919.51-3640.38-6920.09-3642.92-6920.65-3645.37-6920.7-3645.58-6920.98-3645.62-6921.08-3645.43-6922.81-3642.1-6923.09-3636.79-6927.81-3636.85-6936.75-3638.44-6945.47-3636.82-6954.12-3634.69Z" transform="matrix(1 0 0 1.0007 7939.03 3971.13)"/><path d="M-2589.89-1981.2C-2594.84-1981.17-2599.04-1982.59-2602.25-1984.9-2606.25-1986.33-2611.07-1988.53-2614.01-1990.84-2615.16-1990.55-2616.52-1991.76-2617.4-1992.4-2622.84-1996.47-2626.42-2001.89-2628.99-2007.64-2630.95-2005.18-2633.11-2005.8-2635.77-2007.03-2641.36-2010.2-2641.39-2016.63-2639.38-2021.6-2643.62-2031.08-2646.29-2056.36-2639.84-2066.46-2638.52-2067.98-2636.59-2068.88-2635.19-2070.43-2633.95-2071.78-2632.77-2073.16-2631.33-2074.24-2626.92-2077.58-2619.35-2079.37-2614.59-2080.21-2594.76-2084.49-2579.53-2076.8-2561.57-2070.29-2562.62-2067.75-2564-2065.35-2565.68-2063.16-2561.23-2061.5-2563.26-2057.76-2566.72-2055.85L-2568.39-2055.07C-2565.18-2043.59-2558.18-2016.81-2561.37-2007.64-2563.91-1993.34-2575.07-1981.1-2589.89-1981.2" fill="#FFFFFF" transform="matrix(1 0 0 1.0007 3679.21 2160.77)"/><path d="M-2639.68-2022.87C-2643.65-2033.07-2646.56-2056.79-2640.35-2066.5-2639.03-2068.02-2636.66-2068.78-2635.27-2070.32-2634.02-2071.67-2633.17-2073.75-2631.73-2074.82-2627.34-2078.18-2619.48-2079.71-2614.73-2080.54-2605.62-2082.52-2597.51-2082.2-2589.63-2080.39-2580.36-2078.25-2570.95-2074.41-2561.26-2070.89-2562.31-2068.35-2563.68-2065.51-2565.34-2063.31-2560.88-2061.65-2563.34-2057.65-2566.8-2055.75L-2568.31-2055.07C-2568.71-2057.22-2569.78-2062.82-2572.05-2063.06-2575.1-2063.36-2581.05-2057.44-2584.77-2057.67-2587.69-2057.83-2597.57-2064.5-2610.81-2064.04-2621.86-2063.64-2625.96-2057.27-2628.73-2052.36-2631.5-2047.46-2624.6-2041.37-2624.6-2041.37-2624.6-2041.37-2628.73-2036.09-2628.73-2033.78-2628.73-2031.47-2628.32-2024.1-2628.32-2024.1-2628.32-2024.1-2631.79-2026.48-2634.33-2026.48-2636.87-2026.48-2639.16-2022.87-2639.16-2022.87L-2639.68-2022.87Z" fill="#FFFFFF" transform="matrix(1 0 0 1.0007 3679.21 2160.77)"/><path d="M-2589.86-1979.84C-2594.17-1979.84-2598.58-1980.79-2602.19-1983.19-2603.38-1984-2604.45-1984.95-2605.35-1986.05-2605.61-1986.33-2605.61-1986.77-2605.37-1987.07-2605.15-1987.38-2604.7-1987.46-2604.37-1987.26-2584.71-1975.29-2564.29-1990.28-2562.46-2012.04-2561.73-2019.84-2563.31-2027.52-2565.28-2036.04-2567.38-2045.56-2569.84-2053.54-2571.8-2061.28-2572.51-2061.56-2573.32-2061.47-2574.03-2061.22-2577.36-2059.95-2580.21-2056.18-2583.85-2056.18-2586.61-2056-2589.18-2057.37-2591.62-2058.45-2596.99-2061.11-2603.11-2062.67-2609.16-2062.55-2616.73-2062.48-2622.24-2060.13-2625.54-2055.59-2628.69-2051.68-2627.75-2047.49-2625.18-2044.39-2623.52-2042.41-2623.27-2040.75-2625.18-2038.88-2625.93-2038.06-2626.52-2037.13-2626.97-2036.12-2627.51-2034.79-2627.81-2033.38-2627.84-2031.96-2627.93-2028.99-2627.17-2026.21-2627.01-2023.27-2626.97-2022.85-2627.34-2022.48-2627.75-2022.52-2627.77-2022.52-2627.95-2022.52-2628.08-2022.61-2628.08-2022.61-2628.09-2022.61-2628.09-2022.63-2628.24-2022.69-2628.35-2022.81-2628.42-2022.96-2629.55-2024.01-2631.02-2024.68-2632.56-2024.72-2640.11-2024.84-2640.53-2008.62-2632.64-2008.56-2631.23-2008.44-2629.82-2009.62-2628.55-2009.44-2627.66-2009.17-2627.35-2008.01-2627.81-2007.26-2624.46-2001.58-2620.37-1995.73-2614.55-1992.52-2614.41-1992.51-2614.28-1992.52-2614.16-1992.55-2613.88-1992.58-2613.6-1992.61-2613.35-1992.49-2613.08-1992.39-2612.87-1992.2-2612.72-1991.96-2612.14-1991.08-2612.8-1989.95-2613.67-1989.58-2615.23-1988.91-2617.18-1990.49-2618.17-1991.23-2622.96-1994.69-2627.65-2000.62-2629.18-2005.73-2631.36-2004.39-2634.2-2004.82-2636.43-2005.8-2642.25-2008.64-2643.01-2016.58-2640.81-2022.05-2644.22-2030.74-2645.26-2040.19-2644.97-2049.45-2644.51-2055.99-2645-2065.78-2638.49-2069.85-2637.7-2070.38-2636.99-2070.99-2636.32-2071.66-2631.63-2078.12-2621.78-2080.78-2614.86-2081.92-2601.64-2084.71-2587.96-2082.47-2575.63-2077.3-2570.85-2075.54-2565.5-2073.57-2560.87-2071.88-2560.22-2071.64-2559.7-2070.9-2559.99-2070.22-2560.87-2067.99-2562-2065.87-2563.35-2063.89-2559.25-2060.77-2562.88-2055.93-2566.48-2054.46-2563.35-2041.15-2556.95-2021.87-2559.83-2007.52-2562.27-1992.95-2574.37-1979.54-2589.86-1979.84ZM-2602.01-2080.51C-2607.05-2080.48-2612.07-2079.89-2617-2078.77-2622.88-2077.51-2629.7-2075.61-2633.71-2070.59-2634.42-2069.73-2635.22-2068.93-2636.07-2068.2L-2636.89-2067.53C-2639.74-2065.72-2640.87-2062.11-2641.24-2059-2643.23-2047.88-2641.8-2034.36-2639.64-2024.22-2637.23-2027.96-2632.22-2028.5-2629.31-2025.36-2631.14-2031.12-2630.81-2036.78-2626.79-2041.15-2626.68-2041.25-2626.61-2041.39-2626.56-2041.52-2626.55-2041.63-2626.56-2041.73-2626.61-2041.82-2626.74-2042.06-2626.91-2042.28-2627.1-2042.49-2629.18-2045-2630.74-2048.28-2630.28-2051.59-2626.89-2066.36-2608.13-2067.4-2596.07-2063.37-2592.51-2062.38-2589.43-2060.24-2585.91-2059.2-2580.77-2057.95-2577.85-2064.47-2572.72-2064.19-2571.36-2064.2-2569.99-2063.71-2569.01-2062.75-2568.82-2062.58-2568.68-2062.35-2568.61-2062.11-2567.94-2060.64-2567.75-2058.96-2567.24-2057.36-2566.2-2058.02-2565.1-2058.72-2564.64-2059.76-2564.48-2060.22-2564.49-2060.74-2564.7-2061.2-2564.78-2061.37-2564.88-2061.5-2565.01-2061.59-2565.4-2061.78-2565.88-2061.56-2566.28-2061.8-2567.2-2062.14-2567.46-2063.39-2566.78-2064.08-2565.27-2065.82-2564-2067.77-2563.02-2069.85-2575.51-2074.14-2588.44-2080.73-2602.01-2080.51L-2602.01-2080.51ZM-2627.32-2014.55-2627.37-2014.55C-2628.99-2014.62-2629.94-2016.21-2631.45-2016.64-2632.91-2017.22-2634.53-2017.42-2636.07-2017.13-2636.78-2016.98-2637.21-2018.07-2636.5-2018.38-2633.47-2019.82-2629.1-2019.85-2626.5-2017.4-2625.61-2016.51-2625.84-2014.56-2627.32-2014.55Z" transform="matrix(1 0 0 1.0007 3679.21 2160.77)"/><path d="M-2313.81-517.637C-2321.32-517.64-2324.26-517.906-2314.85-520.449L-2314.85-520.449C-2309.56-522.519-2307.57-517.744-2313.81-517.637Z" transform="matrix(1 0 0 1.0007 3410.37 681.858)"/><path d="M-2313-536.812C-2314.76-536.8-2320.3-538.532-2319.39-540.859-2319.15-541.431-2318.59-541.93-2317.94-541.881-2316.24-541.234-2314.67-539.162-2312.51-539.313-2310.84-539.346-2309.68-541.082-2310.12-542.722-2310.58-544.494-2312.5-545.779-2313.09-546.138-2314.1-548.687-2309.19-546.566-2308.68-545.253-2306.26-541.962-2308.8-536.604-2313-536.812Z" transform="matrix(1 0 0 1.0007 3410.37 681.858)"/><path d="M-2329.98-548.754C-2330.2-548.761-2330.43-548.81-2330.62-548.896-2331.21-548.905-2331.82-549.182-2332.24-549.593-2332.95-549.798-2333.22-550.639-2333.22-551.314-2333.53-552.65-2333.13-554.116-2332.85-555.484-2345.77-555.628-2333.28-557.539-2329.48-558.169-2319.58-559.495-2311.07-559.255-2301.39-559.586-2299.56-559.741-2298.75-557.293-2299.87-556.029-2300.85-554.931-2302.53-555.507-2303.82-555.375-2302.22-547.619-2309.56-547.264-2308.31-554.915-2308.37-555.05-2308.46-555.237-2308.49-555.38-2314.86-555.381-2321.6-555.337-2327.95-555.365-2327.29-553.958-2327.38-552.151-2328.05-550.765-2328.17-550.166-2328.44-549.452-2329.06-549.158-2329.3-548.898-2329.64-548.749-2329.98-548.754Z" transform="matrix(1 0 0 1.0007 3410.37 681.858)"/><path d="M83.2626-398.063C79.686-398.041 75.2019-399.422 72.9903-402.091 70.3183-405.665 69.4345-412.756 70.6837-417.466L70.6703-417.472C70.6629-417.475 70.6554-417.478 70.648-417.48 70.6332-417.328 70.4118-417.198 70.0093-417.108 68.6978-416.836 66.1609-416.973 65.4926-417.723 65.393-417.834 65.3529-417.987 65.3826-418.133 57.466-417.984 49.9371-416.787 42.1957-415.943 40.4639-415.799 41.8021-413.677 40.4965-413.28L40.4505-413.28C40.1148-413.262 39.7866-413.386 39.546-413.623 38.5389-414.892 39.8356-417.383 41.2659-417.614 49.3236-418.449 57.4853-420.343 65.5891-418.984 65.9679-419.465 66.513-419.7 67.2571-419.7 67.924-419.667 68.5849-419.555 69.2251-419.368 69.5771-419.281 69.9054-419.198 70.1905-419.154 70.5604-421.228 72.6353-422.358 74.4712-422.969 79.9296-424.773 88.9275-424.289 93.3493-422.415 97.5214-422.894 101.848-423.232 106.034-423.558L106.04-423.558C107.731-423.691 109.483-423.827 111.173-423.968 114.956-425.189 119.131-425.74 123.002-424.61 123.071-424.614 123.134-424.616 123.187-424.616 123.55-424.616 123.606-424.534 123.712-424.387 123.732-424.357 123.756-424.325 123.783-424.291 125.415-423.555 126.645-422.029 127.062-420.292 127.927-420.678 128.867-420.866 129.815-420.84 130.39-420.836 130.964-420.794 131.533-420.715 134.593-419.232 127.875-417.745 127.306-419.184 128.04-412.974 125.733-404.398 119.703-401.488 112.297-397.848 104.678-403.759 105.067-411.839 104.828-411.9 104.629-412.064 104.522-412.286 103.856-413.807 104.698-416.64 105.217-418.254 102.617-418.673 99.8934-418.915 97.3477-418.097 98.7468-413.368 93.3641-401.72 88.7775-399.468 87.166-398.384 85.1712-398.071 83.2626-398.063L83.2626-398.063 83.2626-398.063ZM81.3659-421.972C78.4904-421.972 75.5124-421.749 73.2116-420.136 72.6546-419.518 72.2284-418.45 71.9759-417.047 71.2169-412.924 72.1482-406.573 74.0657-403.789 74.4236-403.21 75.5168-402.246 77.1551-401.398 84.0246-398.084 91.0961-399.754 94.7454-412.024 97.9091-419.885 92.0229-421.892 85.293-421.942 83.9978-421.925 82.6848-421.972 81.3659-421.972L81.3659-421.972ZM118.807-422.992C111.598-423.119 106.322-420.604 106.408-413.094 106.447-412.815 106.395-412.53 106.261-412.282 106.142-412.09 105.964-411.94 105.754-411.856 107.62-401.805 115.693-399.433 121.225-404.992 123.211-407.063 124.536-410.012 125.054-413.524 125.913-418.238 125.583-423.187 119.608-422.986 119.323-422.991 119.06-422.992 118.807-422.992L118.807-422.992ZM94.178-421.953 94.178-421.953C94.8568-421.543 95.4688-421.029 95.9916-420.433 96.5114-419.864 96.9258-419.206 97.211-418.491 98.7305-419.498 100.606-419.707 102.389-419.707 103.431-419.651 104.744-419.786 105.713-419.331 106.392-420.652 107.397-421.804 108.621-422.645 107.956-422.594 107.275-422.541 106.617-422.489L106.614-422.489C102.518-422.168 98.2908-421.834 94.178-421.953Z" transform="matrix(1 0 0 1.0007 992.306 540.656)"/></g></svg>