<svg width="198" height="278" xmlns="http://www.w3.org/2000/svg" xmlns:xlink="http://www.w3.org/1999/xlink" xml:space="preserve" overflow="hidden"><defs><clipPath id="clip0"><rect x="973" y="374" width="198" height="278"/></clipPath></defs><g clip-path="url(#clip0)" transform="translate(-973 -374)"><path d="M-5839.07 137.188C-5839.78 143.798-5840.56 148.963-5840.14 154.959-5838.21 156.244-5837.57 159.332-5836.53 159.527-5826 161.075-5815.42 162.137-5804.81 163.004-5803.69 163.096-5759.96 161.368-5737.37 161.061-5717.09 160.785-5677.5 163.149-5676.5 163.132-5674.66 163.101-5672.84 163.041-5671 162.999-5669.36 162.927-5668.26 161.736-5668.13 160.134-5666.29 136.547-5666.68 110.662-5666.71 86.9781-5667.06 83.4734-5664.47 83.7493-5662.86 83.6589-5660.93 83.5513-5661.37 79.5399-5663.3 73.2023-5668.18 54.3222-5673.96 35.3375-5687.48 21.0317-5689.3 19.1047-5691.83 17.5815-5693.26 16.6429-5698.61 13.4313-5705.22 12.5785-5709.43 14.9295-5709.52 14.903-5714.51 13.2442-5715.11 11.8254-5718.18 9.03161-5719.89 2.89984-5719.89-0.542551-5721.05-1.83657-5721.12-1.59647-5722.7-2.2809-5731.98-15.2865-5752.54-10.823-5758.26 2.78135-5758.74 3.94285-5763.48 13.4313-5772.14 14.6489-5777.66 15.1119-5781.8 13.6448-5788.79 14.2466-5799.2 17.4209-5809.6 24.301-5817.97 34.36-5827.31 45.5821-5833.17 60.4399-5835.56 71.9114-5835.28 75.8122-5831.63 75.2961-5832.43 79.4307-5834.41 98.1955-5837.06 118.427-5839.07 137.188Z" fill="#FFFFFF" transform="matrix(1 0 0 1.00176 6822.57 478.64)"/><path d="M-5789.75 14.6099C-5785.01 12.923-5783.66 13.2863-5781.63 13.3595-5778.9 13.3627-5775.96 13.7852-5773.38 15.1088-5773.31 15.0792-5780.85 16.1206-5783 16.4184-5783.31 16.4621-5783.52 16.7583-5783.46 17.0701-5783.08 18.6494-5781.77 23.2097-5778.48 27.1634-5776.24 29.8559-5765.07 42.4718-5738.16 44.0776-5722.51 45.0115-5705.25 33.8798-5700.72 17.4677L-5708.39 15.3395C-5708.39 15.3395-5708.25 14.2747-5707.73 13.9286-5703.52 11.5791-5697.91 13.9286-5692.13 17.5425-5690.68 18.4499-5684.22 24.0063-5682.33 26.6552-5678.22 30.1989-5672.37 46.2665-5667.84 59.8958-5664.03 71.2894-5659.54 80.8167-5663.17 83.8226-5668.71 84.6676-5675.9 85.9538-5680.84 88.4795L-5675.83 163.171C-5719.14 164.677-5762.63 165.562-5805.91 162.909L-5801.95 92.5128-5834.95 74.1954C-5836.71 70.368-5834.72 66.2848-5833.03 62.8065-5828.31 52.8754-5823.76 41.4163-5816.52 32.7573-5809.15 23.9112-5800.99 18.2908-5789.75 14.6099Z" fill="#FFFFFF" transform="matrix(1 0 0 1.00176 6822.57 478.64)"/><path d="M-5667.85 165.642C-5668.58 165.617-5669.24 165.127-5669.47 164.418-5669.47 164.423-5669.5 163.978-5669.5 163.744-5668.86 139.012-5667.34 112.782-5667.23 87.1153-5669.97 87.6127-5672.56 88.2784-5675.12 89.3682L-5675.12 89.3682C-5676.44 89.9123-5677.95 90.6918-5679.28 89.9045-5677.24 112.961-5675.57 135.61-5674.27 158.696-5674.2 160.76-5677.02 161.995-5678.42 160.408-5679.37 159.415-5679.17 157.848-5679.33 156.618-5704.57 159.485-5727.31 158.317-5754.66 159.445-5770.22 159.413-5786.67 160.678-5801.96 158.55-5802.13 160.511-5801.88 162.8-5803.18 164.429-5804.56 166.325-5807.17 165.135-5807.48 162.934-5807.37 136.888-5804.08 111.376-5803.54 86.2111-5805.5 86.1955-5807.29 86.1581-5809.02 86.0973-5809.05 86.0957-5809.09 86.1362-5809.04 86.1487-5807.03 86.8924-5802.69 89.8406-5806.22 91.1876-5808.32 91.0176-5810.24 89.9653-5812.09 88.9737-5818.64 85.5874-5824.83 82.4787-5831.29 79.2265-5832.05 95.422-5834.47 111.211-5835.61 127.414-5836.93 138.414-5835.79 148.495-5837.02 159.251-5837.06 159.502-5837.15 159.967-5837.15 159.95-5850.03 173.398-5835.5 82.7858-5833.14 78.1757-5841.58 73.2117-5834.83 64.548-5832.41 57.1035-5825.58 41.2214-5818.63 30.0523-5805.22 20.7588-5798.83 16.5712-5791.87 13.8491-5784.87 13.333-5794.52 16.2906-5803.55 21.6974-5810.79 28.8347-5800.48 28.0069-5789.89 27.2835-5779.59 27.8167-5781.82 24.5676-5783.8 20.9054-5784.13 16.9189-5784.58 16.7411-5784.59 16.0458-5784.14 15.8759-5784.08 15.8509-5783.95 15.8135-5783.85 15.8088-5783.58 15.7932-5783.3 15.7808-5783.02 15.7636-5758.98 14.2342-5759.45-5.97742-5754.96-3.19295-5754.74-3.05575-5754.35-2.6426-5754.33-2.62077-5752.84-1.04769-5754.52 1.25036-5755.14 2.81877-5760.12 12.5223-5771.76 19.8203-5782.78 17.3648-5768.86 45.6866-5715.25 53.011-5703.29 19.2263-5712.99 18.5949-5721.22 10.6671-5720.11 1.68846-5720.06 1.33923-5719.55 1.32987-5719.49 1.67754-5718.88 5.65002-5716.63 8.08526-5713.38 11.0568-5709.73 14.044-5704.74 14.8282-5699.95 15.3754-5698.07 15.4315-5697.04 17.7654-5698.44 19.1-5699.03 22.5548-5700.9 25.754-5702.76 28.6944-5698.49 28.1581-5694.15 28.01-5689.87 27.9336-5687.89 27.7091-5682.46 27.7496-5685.05 30.9426-5691.08 32.1103-5697.77 31.0346-5703.91 30.3143-5706.42 33.6382-5709.49 36.5583-5712.96 38.8657-5701.28 38.1984-5688.99 37.0198-5677.63 38.2545-5682.13 28.2922-5689.82 18.2176-5701.09 13.397-5701.23 13.3346-5701.06 13.3112-5700.83 13.3627-5684.13 17.0872-5674.85 32.7682-5669.64 48.0579-5664.94 61.0089-5661.46 72.6083-5659.04 83.5139-5658.43 87.6579-5663.77 86.2968-5666.29 86.9657-5663.95 107.444-5664.11 128.277-5665.03 149.256-5665.92 153.177-5663.94 164.183-5667.85 165.642ZM-5801.23 143.358C-5801.45 148.155-5801.7 153.224-5801.95 158.084-5784.13 155.405-5765.67 156.219-5747.78 155.405-5725.16 155.46-5702.01 152.965-5679.54 153.844-5680.37 141.188-5681.02 128.737-5681.79 116.048-5721.67 116.449-5761.58 117.47-5800.01 112.742-5800.18 117.953-5800.35 122.91-5800.6 128.864-5762.21 127.666-5723.9 127.615-5685.59 126.238-5682.6 121.946-5677.24 131.095-5688.74 130.075-5730.79 131.191-5758.35 131.793-5800.62 129.442-5800.82 134.228-5800.99 138.572-5801.2 142.716-5765.74 140.449-5727.8 140.265-5692.11 139.757-5690.66 139.743-5687.31 139.691-5685.86 139.676-5684.08 139.601-5681.94 139.33-5680.68 140.79-5679.19 143.615-5684.02 143.899-5685.83 143.736-5686.19 143.736-5686.5 143.736-5686.83 143.739L-5693.54 143.806C-5728.62 144.138-5766.52 144.807-5801.23 143.361L-5801.23 143.361-5801.23 143.358ZM-5788.99 110.724C-5753.37 111.36-5717.73 112.124-5682.05 111.341-5682.58 101.689-5683.04 92.2509-5683.19 83.3206-5721.64 85.4892-5761.88 85.4846-5800.4 86.2204-5799.83 89.8265-5799.59 93.3141-5799.61 96.9888-5762.64 95.9676-5724.69 98.5541-5687.42 97.4862-5685.02 97.1759-5681.88 99.5987-5685.3 101.094-5686.84 101.632-5688.52 101.332-5690.15 101.418-5726.28 101.293-5763.9 102.198-5799.61 97.4893-5799.59 102.026-5799.78 106.611-5799.93 111.078-5796.33 110.752-5792.53 110.74-5788.99 110.724L-5788.99 110.724ZM-5671.3 83.0462C-5674.23 83.1241-5677.07 83.1491-5680 83.2177-5679.84 84.56-5679.73 85.575-5679.64 86.5089-5677.49 84.5959-5674.1 83.991-5671.3 83.1491-5671.17 83.1117-5671.17 83.0431-5671.3 83.0462ZM-5833.67 69.8987-5833.67 69.8987C-5835.18 73.9117-5830.91 75.5596-5828.01 76.9004-5823.41 79.1517-5818.27 81.6571-5813.72 83.9006-5810.65 83.5576-5807.34 83.2956-5803.63 83.1008-5804.78 74.2219-5802.57 75.3195-5800.98 82.9745-5761.61 81.986-5722.57 80.4036-5683.24 80.8245-5683.25 76.8271-5683.32 74.0239-5683.1 70.2775-5732.33 68.3427-5784.22 68.4519-5833.67 69.8956L-5833.67 69.8987ZM-5667.9 80.5782-5667.9 80.5782C-5666.93 80.6827-5665.23 80.2835-5664.64 81.0007-5664.47 81.2096-5664.47 81.2003-5664.56 80.8339-5668.24 65.5645-5671.09 53.011-5677.31 38.9047-5676.89 42.4749-5684.31 40.3234-5686.56 40.947-5696.05 41.092-5706.22 41.2027-5715.39 40.3421-5730.82 48.2855-5750.31 46.7264-5765.68 39.3396-5767.65 40.4746-5770.97 39.7497-5773.2 40.074-5773.2 40.074-5779.74 40.2969-5779.74 40.2969-5793.42 40.696-5806.98 41.3898-5820.61 40.9423-5822.93 44.5297-5825.02 48.273-5826.84 52.1426-5786.21 54.8351-5745.6 49.2926-5704.89 50.1034-5701.78 50.7815-5668.3 48.1031-5675.57 53.6206-5708.25 54.595-5732.61 53.2667-5769.25 55.3262-5788.35 55.9857-5808.56 57.3732-5827.16 52.8145-5829.51 58.0124-5831.72 63.427-5833.41 68.9118-5779.98 61.4346-5724.83 65.7173-5671.3 66.6621-5669.08 66.3674-5666.93 67.6957-5668.43 70.0561-5671.53 71.4796-5675.72 70.0671-5679.12 70.3882-5679.65 70.3757-5680.99 70.3352-5681.56 70.3212-5681.1 73.801-5680.64 77.3338-5680.26 80.8183-5676.11 80.7824-5672.06 80.5782-5667.9 80.5782ZM-5811.85 29.9136C-5814.95 33.1424-5817.75 36.6487-5820.23 40.3873-5801.17 38.5773-5786.79 38.5258-5769.05 37.4236-5772.56 35.2113-5775.85 32.5515-5778.45 29.3071-5777.83 33.5041-5791.64 30.8553-5794.62 31.3557-5798.03 31.2606-5801.4 31.1109-5804.77 30.9441-5807.06 30.6198-5809.85 31.2123-5811.85 29.9136Z" transform="matrix(1 0 0 1.00176 6822.57 478.64)"/><path d="M-5462.02-4286.96C-5464.18-4296.19-5468.25-4305.39-5475.31-4311.74-5490.9-4327.16-5515.08-4324.23-5528.47-4310.73-5534.21-4304.93-5538.12-4297.4-5539.46-4290.3-5540.16-4286.56-5541.18-4281.54-5539.62-4276.11-5539.51-4274.43-5536.97-4270.77-5538.4-4270.47-5542.14-4269.3-5543.63-4265.75-5543.67-4261.41-5543.03-4258.12-5540.82-4254.24-5537.78-4253.01-5535.96-4252.48-5533.35-4253.27-5532.68-4251.54-5530.3-4247.18-5527.68-4243.95-5525.15-4240.36-5523.73-4238.35-5521.64-4235.83-5519.83-4233.88-5519.43-4233.44-5517.11-4224.65-5516.62-4224.26-5514.97-4222.97-5500.88-4223.67-5495.31-4223.67-5479.03-4223.67-5458.5-4229.56-5458.16-4247.75-5458.1-4251.76-5457.94-4255.78-5458.39-4259.74-5459.45-4268.79-5459.94-4278.19-5462.02-4286.96Z" fill="#FFFFFF" transform="matrix(1 0 0 1.00176 6587.16 4718.92)"/><path d="M-5489.6-4221.73C-5492.77-4221.56-5501.73-4223.4-5500.72-4227.67-5500.27-4228.98-5498.57-4229.93-5497.37-4228.97-5492.91-4225.3-5485.41-4226.35-5480.27-4227.86-5468.71-4230.93-5460.34-4236.89-5459.75-4249.05-5459.7-4259.81-5462.13-4272.03-5462.24-4282.57-5462.27-4285.47-5462.7-4288.71-5462.27-4291.52-5461.09-4287.64-5460.28-4282.32-5459.51-4278.61-5458.28-4268.05-5454.84-4255.04-5456.51-4244-5459.55-4229.4-5475.98-4222.3-5489.6-4221.73ZM-5519.83-4232.55C-5521.96-4233.01-5523.12-4235.22-5524.45-4236.75-5527.85-4241.19-5530.69-4246.02-5532.68-4251.33-5535.91-4249.14-5540.3-4252.24-5542.58-4254.66-5547.46-4259.9-5545.93-4268.94-5539.67-4272.34-5544.62-4280.62-5542.1-4291.56-5538.71-4300.01-5530.02-4321.3-5501.97-4330.65-5482.04-4319.46-5471.27-4313.5-5460.48-4300.33-5462.99-4288.26-5466.37-4296.38-5470.37-4304.55-5477.09-4310.43-5495.4-4327.55-5527.74-4319.36-5535.55-4295.62-5538.45-4288.43-5537.69-4280.73-5537.65-4273.2-5535-4274.13-5530.61-4273.63-5529.97-4270.61-5537.28-4272.76-5545.47-4263.16-5539.23-4257.09-5538.09-4255.86-5536.58-4254.97-5534.93-4254.61-5533.48-4254.4-5531.12-4253.23-5532.54-4251.5-5528.89-4247.22-5525.48-4243.14-5521.72-4238.88-5520.35-4237.32-5516.15-4233.69-5519.83-4232.55ZM-5530.2-4257.92C-5531.84-4257.95-5531.73-4260.12-5532.81-4260.98-5533.82-4259.49-5534.8-4260.91-5533.94-4262.08-5535.05-4263.13-5536.63-4263.53-5537.9-4264.06-5537.36-4264.48-5536.35-4264.34-5535.63-4264.44-5533.09-4265.08-5524.87-4259.07-5530.2-4257.92Z" transform="matrix(1 0 0 1.00176 6587.16 4718.92)"/><path d="M-1153.58 101.223C-1157.42 101.34-1161.36 97.4908-1160.2 93.5636-1160.18 93.495-1160.12 93.4435-1160.04 93.4279-1159.73 93.7257-1159.45 94.0625-1159.22 94.4288L-1159.22 94.4351C-1158.85 95.0182-1158.41 95.5545-1157.91 96.0347-1157.11 96.769-1156.13 97.271-1155.07 97.4893-1154.06 97.6732-1153.02 97.5095-1152.12 97.0262-1151.59 96.7253-1151.11 96.3621-1150.68 95.9443L-1150.63 95.8975C-1150.18 95.4454-1149.65 95.0836-1149.07 94.8342-1148.91 94.7781-1148.76 94.75-1148.59 94.75-1148.21 94.7594-1147.85 94.8934-1147.55 95.1289-1147.1 95.4734-1146.76 96.016-1146.78 96.5991-1146.82 97.4409-1147.17 98.2376-1147.76 98.8379-1149.48 100.495-1151.38 101.153-1153.58 101.223Z" transform="matrix(1 0 0 1.00176 2256.1 374)"/><path d="M-1152.41 88.3361C-1154.37 88.4062-1161.42 85.9944-1158.58 83.3596-1158.33 83.1397-1158.01 83.0166-1157.68 83.0088-1157.43 83.0103-1157.19 83.0852-1156.99 83.2224-1155.26 84.6161-1152.03 87.0483-1149.95 84.783-1147.92 82.3181-1151.08 79.2483-1152.5 78.5468-1152.7 78.3799-1152.76 78.1071-1152.66 77.8717-1152.54 77.5037-1152.2 77.2574-1151.81 77.2668-1148.89 77.4897-1146.55 80.2196-1146.91 83.1522-1147.08 85.971-1149.54 88.4561-1152.41 88.3361Z" transform="matrix(1 0 0 1.00176 2256.1 374)"/><path d="M-1143.37 79.5196C-1143.83 79.5196-1144.27 79.3232-1144.57 78.9802-1145.57 77.7594-1145.68 76.1739-1145.67 74.6912-1145.62 73.5531-1145.38 72.429-1144.94 71.3767-1143.96 68.9149-1141.7 70.1902-1141.06 71.874-1140.63 72.8203-1140.39 73.8415-1140.35 74.8814L-1140.35 74.9344C-1140.4 75.9322-1140.67 76.9082-1141.13 77.7937-1141.57 78.6512-1142.33 79.5212-1143.37 79.5196L-1143.37 79.5196Z" transform="matrix(1 0 0 1.00176 2256.1 374)"/><path d="M-1168.94 79.5196C-1169.98 79.5212-1170.74 78.6512-1171.19 77.7937-1171.65 76.9066-1171.91 75.9322-1171.96 74.9344L-1171.96 74.8814C-1171.93 73.8415-1171.69 72.8203-1171.25 71.874-1170.6 70.1497-1168.31 68.9149-1167.34 71.4421-1166.49 73.8057-1166.1 76.6977-1167.75 78.9942-1168.06 79.3294-1168.49 79.5212-1168.94 79.5196L-1168.94 79.5196Z" transform="matrix(1 0 0 1.00176 2256.1 374)"/><path d="M-1161.02 70.5488C-1165.19 70.9308-1168.59 68.02-1172.64 67.9717-1175.38 68.0808-1178.13 68.4659-1180.82 69.0677-1181.43 69.2454-1182.07 69.3608-1182.7 69.4107L-1182.71 69.4107C-1182.77 69.4076-1182.82 69.3733-1182.84 69.3218-1182.87 69.2782-1182.86 69.2236-1182.84 69.1815-1181.55 67.5071-1179.63 66.4843-1177.76 65.591-1175.98 64.7632-1173.62 63.7981-1171.08 63.6765-1167.93 63.5331-1165.19 65.4367-1162.06 65.3618-1159.38 65.5801-1155.51 62.9048-1154.7 66.963-1154.61 67.5663-1154.71 68.1837-1155 68.7216-1155.34 69.3094-1155.9 69.7396-1156.56 69.9189-1158.01 70.343-1159.51 70.5566-1161.02 70.5488Z" transform="matrix(1 0 0 1.00176 2256.1 374)"/><path d="M-1149.04 69.353C-1151.1 69.5229-1153.56 68.0512-1152.9 65.7235-1152.54 64.5667-1151.5 63.756-1150.29 63.6952-1150.06 63.6952-1149.84 63.7326-1149.62 63.8059-1148.42 64.2689-1147.16 63.8293-1145.97 63.4021-1144.15 62.7582-1142.36 61.8462-1140.39 61.8555-1137.85 61.8773-1135.16 63.3709-1134.47 65.9293-1134.44 66.0525-1134.6 66.1491-1134.69 66.0572-1136.72 64.1364-1139.51 65.9465-1141.6 66.9396-1143.97 68.02-1146.38 69.3265-1149.04 69.353L-1149.04 69.353Z" transform="matrix(1 0 0 1.00176 2256.1 374)"/><path d="M123.038-49.1383C124.389-49.6013 125.468-48.1951 125.208-46.9712 124.902-45.5275 123.396-44.3707 122.397-43.3526 121.349-42.2816 120.281-41.2308 119.171-40.2221 114.895-36.3431 110.255-32.8774 105.336-29.8481 103.554-28.8004 101.872-27.8884 100.046-26.8578 107.486-21.2219 103.97-10.7388 96.1594-7.68614 91.5695-5.84646 84.0284-5.95715 80.6827-10.0684 79.0862-12.0827 78.5109-14.652 78.3955-17.1761 78.3082-18.3251 78.3799-19.482 78.606-20.6107 72.0237-20.5608 65.4382-20.4907 58.8746-21.0831 57.657-21.1938 56.4456-21.3731 55.2326-21.5461 54.0571-21.7114 52.7584-21.7753 51.6593-22.2571 51.5845-22.2867 51.6156-22.3943 51.6811-22.4161 52.852-22.7949 54.1834-22.7279 55.4041-22.8012 56.7699-22.8838 58.2058-22.9758 59.5699-23.0194 66.0166-23.2159 72.468-23.1364 78.91-23.5028 79.5056-24.6533 80.4239-25.6137 81.3983-26.454 84.493-29.2697 88.8474-30.3735 92.9633-30.2831 94.9246-30.2426 97.72-29.965 98.618-28.3623 98.7116-28.1955 100.422-28.5167 100.929-28.9049 106.568-33.2546 111.935-37.9661 116.846-43.125 117.838-44.1556 118.828-45.1892 119.788-46.2463 120.771-47.3267 121.614-48.655 123.038-49.1383Z" transform="matrix(1 0 0 1.00176 993.265 467.708)"/><path d="M103.401-1519.17C90.2506-1519.36 76.23-1523.49 67.0737-1533.34 56.8681-1540.27 58.2229-1555.08 59.1459-1565.63 59.7555-1571.06 59.6697-1576.89 62.1143-1581.8 61.8664-1582.97 63.7201-1583.94 64.2268-1582.66 66.857-1576.72 69.5791-1570.58 73.8571-1565.49 77.722-1559.99 89.9824-1552.58 92.3272-1563.19 96.2327-1570.3 106.109-1570.84 113.318-1570 116.497-1569.31 118.379-1566.98 119.467-1564.26 120.384-1561.69 122.317-1559.62 125.778-1560.19 125.873-1560.16 125.975-1560.16 126.073-1560.16 126.583-1560.88 126.895-1561.74 127.256-1562.53 127.224-1562.7 127.174-1562.87 127.157-1563.06 127.607-1563.79 128.56-1564.11 129.353-1563.76 132.072-1550.87 132.621-1538.8 127.417-1526.98 121.352-1521.4 111.73-1519.1 103.401-1519.17ZM108.365-1562.73C103.697-1562.89 97.3614-1560.24 99.3258-1554.54 99.9588-1553.19 101.272-1551.66 102.991-1552.11 104.196-1552.52 104.443-1554.36 105.261-1555.32 108.099-1558.38 110.963-1554.52 113.01-1552.56 113.615-1552.1 114.527-1552.17 115.018-1552.77 117.339-1555.55 114.04-1561.18 111.354-1562.42 110.372-1562.64 109.369-1562.73 108.365-1562.73Z" transform="matrix(1 0 0 1.00176 997.917 2036.96)"/><path d="M78.673 66.8445C78.673 66.8445 134.027 40.4559 152.105 49.9412 152.607 50.2047 154.167 49.2022 154.08 48.6425 152.945 41.4537 146.381 9.74254 115.623 8.26299 109.432 7.96521 99.9011 8.62625 92.8729 11.7974 85.8447 14.9685 64.7834 28.1815 69.9501 50.7332 69.9501 50.7332 65.1482 45.5556 61.6014 49.8913 60.4196 51.3366 58.5831 53.7235 59.0601 58.0436 59.5216 62.2359 60.8998 66.3783 71.6573 66.8071 71.9925 66.8211 72.0112 67.8516 71.69 67.9514 68.7855 68.8541 61.0323 71.5232 59.7695 74.6803 58.8886 76.8848 58.7748 80.6437 60.3931 84.1905 60.3931 84.1905 56.43 96.6302 66.2193 99.0702 66.6839 99.1855 66.8008 99.7889 66.4048 100.06 62.066 103.036 50.9172 112.682 49.5187 133.924 48.3167 152.179 49.4688 178.114 49.5717 182.954 49.5795 183.35 50.0005 183.605 50.3512 183.418 52.7803 182.129 60.4773 177.129 65.5583 163.511 65.669 163.214 66.065 163.157 66.2365 163.423 67.0191 164.638 68.6717 167.159 70.0452 168.952 70.817 169.96 73.0558 171.568 74.3139 172.544 74.7473 172.881 75.3772 172.7 75.569 172.185 76.5013 169.675 79.1953 162.856 83.8694 154.35 86.4683 149.621 88.9098 138.396 88.9098 138.396 88.9098 138.396 104.397 112.408 81.0116 69.6898L78.673 66.8445Z" fill="#FFFFFF" transform="matrix(1 0 0 1.00176 973 374)"/><path d="M155.503 49.9412C155.393 49.7884 155.258 49.6575 155.129 49.5234 154.337 38.7363 150.174 27.681 142.873 19.6129 137.626 13.8148 130.652 9.82361 123.052 8.04317 115.124 6.18477 106.644 6.43422 98.8004 8.55609 86.7957 11.8036 74.8253 19.9668 69.9517 31.7704 65.5598 42.4063 67.4354 55.4681 75.095 64.1364 75.3211 64.3937 75.5487 64.6353 75.7779 64.866 76.0211 65.1108 74.5634 65.2636 73.589 65.2511 72.3339 65.2355 71.082 65.2465 69.8285 65.1779 67.6942 65.0625 65.3992 64.8162 63.5112 63.7326 59.6822 61.5328 59.6385 55.8438 61.3675 52.2673 61.8508 51.268 62.4838 50.3637 63.4348 49.7682 64.4014 49.1617 65.6596 49.369 66.5701 48.7439 66.6636 48.6799 66.7509 48.5427 66.7011 48.4243 66.2349 47.3158 64.8255 47.1645 63.7778 47.3204 62.5134 47.5091 61.4392 48.1997 60.6005 49.1523 58.8341 51.1588 57.9813 53.9106 57.7848 56.5407 57.579 59.3033 58.3196 62.3108 60.2091 64.3921 61.9631 66.3238 64.5761 67.1641 67.0861 67.5289 67.6318 67.6084 68.179 67.649 68.7263 67.6973 67.1719 68.1822 65.6393 68.7964 64.1567 69.431 60.9138 70.8154 58.3196 72.9295 58.1013 76.6759 57.9672 78.9708 58.6329 81.3328 59.3142 83.5014 59.3345 83.5638 59.3579 83.6262 59.3766 83.6885 58.3383 85.1915 58.1964 87.6594 58.1995 89.2715 58.2042 91.6163 58.6766 93.983 59.7804 96.0659 60.7174 97.8323 62.2156 99.3243 64.1115 99.9994 62.2016 101.39 60.4867 103.1 58.9775 104.836 55.2467 109.121 52.5542 114.037 50.7971 119.435 48.7813 125.626 47.9737 132.177 47.6167 138.656 47.2378 145.541 47.3002 152.451 47.4654 159.342 47.6603 167.494 48.061 175.629 48.0345 183.785 48.0298 185.06 49.3394 185.601 50.3793 185.13 58.2697 181.564 63.0404 173.125 66.2676 165.258 66.8866 166.63 67.7144 167.941 68.4924 169.081 70.039 171.35 72.0127 173.22 74.4246 174.547 75.2821 175.018 76.4233 174.609 76.6821 173.629 78.1648 167.994 81.668 163.182 84.2872 158.052 87.0841 152.575 88.3501 146.632 89.5817 140.661 89.7532 140.592 89.9185 140.485 90.051 140.306 93.0506 136.277 94.0827 130.853 94.7843 125.967 95.5124 120.889 95.6605 115.769 95.2941 110.654 94.5395 100.168 91.8751 89.839 87.82 80.1541 86.7131 77.5115 85.4674 74.9313 84.1157 72.4056 83.1413 70.5847 82.1092 68.6811 80.7996 67.0425 82.7219 66.5654 84.6442 65.7329 86.3966 65.0703 89.0579 64.0631 91.7067 63.0279 94.3369 61.9459 99.6953 59.7414 105.058 57.5432 110.535 55.6442 119.821 52.4263 129.528 49.9474 139.398 49.659 142.052 49.5811 144.744 49.645 147.37 50.0675 148.555 50.2577 149.73 50.5103 150.881 50.8517 152.103 51.2118 153.18 51.8136 154.477 51.7404 155.288 51.6967 156.075 50.7285 155.503 49.9412ZM65.3322 71.7072C67.2919 70.8559 69.3343 70.1154 71.3673 69.4684 72.7362 69.0334 74.066 68.5407 75.3819 68.0169 75.8605 68.377 76.3173 68.7543 76.757 69.1363 75.4801 73.7667 73.9616 78.1445 71.3049 82.2105 70.2089 83.8881 66.4594 89.8016 63.9368 87.1777 62.8237 86.0193 62.2671 84.3153 61.8025 82.817 61.2412 81.0101 60.6815 79.0971 60.6878 77.1904 60.6971 74.2173 62.833 72.7938 65.3322 71.7072ZM72.3542 110.274C72.1515 111.731 71.9691 113.189 71.7025 114.636 71.16 117.573 70.4397 120.488 69.5978 123.354 68.7434 126.259 67.7565 129.127 66.7135 131.968 66.2193 133.313 65.7033 134.649 65.1747 135.981 64.9689 136.498 64.7647 137.011 64.5807 137.529 62.9172 133.193 62.3918 128.624 62.529 123.914 62.7192 117.395 63.9914 110.776 66.7057 104.825 67.3387 103.437 68.0824 102.101 68.9523 100.847 69.1877 100.508 69.4512 100.191 69.7225 99.8793 70.1357 99.7187 70.5145 99.5098 70.8684 99.2744 71.1537 102.06 71.7368 104.809 72.6644 107.453 72.454 108.367 72.4727 109.425 72.3542 110.274ZM61.9631 94.3026C61.1773 92.6967 60.8297 90.8196 60.7673 89.0439 60.7455 88.414 60.772 87.781 60.8156 87.1512 61.1321 87.7171 61.4798 88.2628 61.9038 88.7508 64.838 92.1183 68.5797 89.5506 70.9432 86.8939 70.6891 89.7953 70.6096 92.7295 70.6439 95.6153 70.6486 95.9567 70.6829 96.295 70.6954 96.6365 68.8245 96.836 67.1469 97.9882 65.1732 97.3988 63.6547 96.9452 62.6366 95.6777 61.9631 94.3026ZM51.176 181.223C51.2383 175.14 50.9125 169.05 50.7207 162.973 50.5087 156.255 50.398 149.524 50.6007 142.806 50.9515 131.223 52.1348 119.02 59.1022 109.332 60.7938 106.979 62.7161 104.737 64.8489 102.774 65.4413 102.23 66.0587 101.674 66.6979 101.133 66.2988 101.727 65.9465 102.313 65.6471 102.823 64.0039 105.632 62.9344 108.792 62.1315 111.935 60.4352 118.575 59.8724 125.788 61.0058 132.568 61.4361 135.14 62.1611 138.206 64.0647 140.134 64.0647 140.147 64.0616 140.158 64.0616 140.168 64.0787 141.018 65.0937 141.416 65.7033 140.848 66.7946 139.835 67.3075 138.475 67.8625 137.119 68.4285 135.738 68.9586 134.338 69.4762 132.936 70.2339 130.881 70.9012 128.798 71.5248 126.7 70.8185 133.324 69.7864 139.917 68.5189 146.431 66.7572 155.494 64.0834 164.524 59.1895 172.431 57.155 175.72 54.5451 179.126 51.176 181.223ZM84.5491 148.478C83.6932 151.517 82.6642 154.365 81.1925 157.162 78.818 161.672 75.9057 165.983 74.2921 170.838 72.8952 169.831 71.6776 168.598 70.6096 167.223 69.445 165.72 68.5922 163.872 67.3933 162.372 71.135 152.363 72.7751 141.617 74.1237 131.064 74.8456 125.414 75.3772 119.728 75.5627 114.032 78.1149 118.943 81.2034 123.566 83.7337 128.518 84.7035 130.417 85.5734 132.365 86.2391 134.394 86.5697 135.402 86.8659 136.42 87.0935 137.457 87.2057 137.97 87.2775 138.5 87.3663 139.026 87.3476 139.071 87.3164 139.099 87.3008 139.149 86.342 142.251 85.43 145.352 84.5491 148.478ZM84.3215 79.2561C86.3031 83.9489 88.0133 88.7383 89.3229 93.6649 91.9063 103.384 93.0475 113.562 91.9281 123.588 91.6272 126.285 91.1237 128.963 90.4345 131.59 89.9918 133.277 89.4789 134.935 89.022 136.608 88.9207 136.18 88.8131 135.764 88.7102 135.367 88.2425 133.549 87.5643 131.793 86.8035 130.08 85.2117 126.488 83.1709 123.117 81.1582 119.749 79.1704 116.424 77.142 113.078 75.6563 109.489 75.6329 109.435 75.6157 109.377 75.5939 109.321 75.558 109.089 75.4848 108.889 75.371 108.721 73.9086 104.999 72.9373 101.13 72.627 97.1338 72.3199 93.1925 72.5678 89.1935 72.2357 85.2554 73.8478 83.0867 75.2135 80.7326 76.3235 78.2708 77.3478 75.9993 78.2505 73.6217 78.7775 71.1724 78.9802 71.3938 79.1891 71.609 79.4042 71.8101 79.7987 73.062 80.1354 74.3326 80.4067 75.6157 80.7263 77.1265 80.9789 78.6512 81.1644 80.1838 81.3343 81.5838 81.3234 83.0166 81.9096 84.3215 82.1903 84.9467 83.121 84.7128 83.2925 84.1406 83.7103 82.7422 83.4016 81.2159 83.2224 79.7971 83.0228 78.224 82.7749 76.6556 82.4475 75.1044 83.0976 76.4763 83.7306 77.8577 84.3215 79.2561ZM149.813 47.3298C148.679 47.0991 147.543 46.8823 146.392 46.7623 140.006 46.0903 133.542 46.7451 127.247 47.8911 116.298 49.8835 106.016 53.9636 95.8273 58.3289 92.8152 59.6198 89.8203 60.945 86.8222 62.2687 84.7892 63.1651 82.7531 64.0444 80.7481 65.0095 80.625 65.0687 80.5579 65.011 80.6 64.8801 81.1036 63.3257 81.5994 61.7807 82.29 60.2871 84.2217 56.1057 86.9828 52.2626 89.9388 48.9606 91.1112 47.651 92.6203 46.7077 93.8645 45.4667 94.3026 45.0302 93.6852 44.2974 93.1473 44.603 89.3494 46.7623 86.4403 50.3279 84.0736 53.9386 82.0577 57.0131 80.031 60.7657 79.4261 64.5168 78.7105 63.6328 77.9668 62.7769 77.2294 61.9163 77.0111 61.4081 76.81 60.9014 76.6556 60.4259 76.2175 59.0726 75.9634 57.6882 75.912 56.2679 75.8028 53.2137 76.4623 50.1704 77.3323 47.2581 78.2349 44.2335 79.4136 41.2994 80.6016 38.3777 81.654 35.7881 82.7687 33.2219 83.1428 30.4374 83.2192 29.8637 82.2963 29.6423 82.0546 30.1428 80.5985 33.1689 79.4027 36.3166 78.1398 39.4301 77.4632 41.0951 76.8084 42.768 76.244 44.4752 74.9375 48.418 73.7573 52.8473 74.2204 57.1674 74.2438 57.3857 74.1674 57.5634 74.0972 57.4356 73.0963 55.5912 72.3059 53.644 71.7508 51.6125 70.3446 46.4708 70.3757 40.9642 71.8444 35.8411 75.0997 24.4818 85.7777 16.2095 96.5819 12.4989 104.146 9.90156 112.646 9.19998 120.331 10.6265 127.155 11.894 133.555 14.8859 138.63 19.6644 145.957 26.5647 149.817 36.0656 152.402 45.6024 152.642 46.4848 152.9 47.3625 153.154 48.2403 152.084 47.8022 150.893 47.5512 149.813 47.3298Z" transform="matrix(1 0 0 1.00176 973 374)"/></g></svg>