<svg width="195" height="272" xmlns="http://www.w3.org/2000/svg" xmlns:xlink="http://www.w3.org/1999/xlink" xml:space="preserve" overflow="hidden"><defs><clipPath id="clip0"><rect x="741" y="68" width="195" height="272"/></clipPath></defs><g clip-path="url(#clip0)" transform="translate(-741 -68)"><path d="M11.9995 172.127C11.9995 172.127 3.40429 206.395 9.55865 225.067 11.3023 230.357 15.4496 234.181 19.8188 235.881 19.8188 235.881 23.8945 238.601 28.7032 240.56 33.5118 242.518 39.2897 244.403 39.2897 244.403L38.9862 255.935C38.9633 256.804 39.5431 257.575 40.3863 257.79 49.2578 260.058 96.6402 267.983 157.761 258.383 157.761 258.383 178.146 261.66 186.319 254.9 186.319 254.9 183.893 239.125 182.118 219.991 179.649 193.376 175.138 157.133 158.968 137.184 151.364 127.803 142.174 124.915 126.722 122.645 125.706 122.496 124.874 121.756 124.61 120.762 124.61 120.762 123.086 117.241 122.997 114.658 122.908 112.075 123.398 107.817 123.398 107.817 123.371 107.433 123.106 107.108 122.736 107.003L88.0722 97.1613C87.7443 97.0682 87.4265 97.3316 87.458 97.6709 87.7272 100.554 88.2969 111.635 82.2141 119.198 82.2141 119.198 56.5903 117.179 36.982 130.328 26.0762 137.642 16.9485 147.958 11.9995 172.127Z" fill="#FFFFFF" transform="matrix(1.00157 0 0 1 741 68)"/><path d="M92.5129 226.877C89.1158 222.967 50.1411 201.413 44.8915 203.068 44.5636 203.171 43.1249 204.689 43.6632 205.26 45.8792 207.861 47.066 211.666 44.1356 213.722 40.0499 216.337 31.5978 215.553 26.5687 213.214 25.8787 212.864 24.9896 213.481 25.0884 214.254 25.966 222.197 25.8185 229.999 19.5597 235.32 19.4466 235.416 19.4552 235.595 19.5797 235.677 39.2467 248.628 63.5893 249.159 84.3816 245.457 85.6256 245.104 88.4816 244.98 88.3585 242.252 88.0621 235.662 90.1981 231.211 92.2638 227.69 92.4142 227.434 92.5544 227.172 92.5129 226.877Z" fill="#FFFFFF" transform="matrix(1.00157 0 0 1 741 68)"/><path d="M24.8665 210.56C24.8909 211.394 25.9645 211.859 26.5873 211.294 30.6931 207.814 35.3242 205.277 40.3705 203.749 40.8759 203.586 41.1765 203.071 41.0749 202.564 40.8158 200.398 41.6189 196.722 39.8838 195.19 36.667 193.282 31.4017 195.683 28.2221 197.469 24.7291 200.836 24.9181 205.449 24.8665 210.56Z" fill="#FFFFFF" transform="matrix(1.00157 0 0 1 741 68)"/><path d="M46.5821 187.63C35.9598 190.021 20.4129 187.661 12.7797 179.579 12.2414 178.97 11.1348 179.318 11.0575 180.137 9.7333 193.289 2.90038 228.111 17.8375 233.634 30.464 228.736 18.2211 205.406 26.6445 196.768 30.1519 193.771 38.5281 191.538 40.8115 193.907 44.4104 196.718 40.4307 203.43 43.102 203.241 43.8536 203.177 44.8227 203.319 45.0117 202.387 45.3252 200.838 45.6688 199.261 45.9995 197.737 46.6351 194.812 47.2922 191.789 47.789 188.772 47.9192 188.097 47.2507 187.458 46.5821 187.63Z" fill="#FFFFFF" transform="matrix(1.00157 0 0 1 741 68)"/><path d="M88.9512 235.187C89.9604 231.15 94.8865 223.256 99.8727 220.762 105.358 218.019 110.141 217.616 110.558 218.032 110.973 218.447 112.279 218.27 112.814 218.27 113.348 218.27 120.472 219.398 121.658 219.16 122.845 218.923 124.507 220.17 124.745 220.764 124.983 221.358 133.327 224.472 134.703 226.091 136.083 227.716 138.843 230.832 137.953 231.366 137.062 231.9 131.808 230.854 129.256 228.776 126.703 226.699 123.617 225.289 121.302 225.467 118.987 225.644 113.083 226.244 112.043 227.588 107.723 233.168 109.735 238.125 110.684 239.134 111.633 240.143 116.316 238.689 118.512 238.985 120.708 239.281 123.305 240.291 124.018 239.934 124.731 239.578 129.181 238.517 130.251 237.33 131.319 236.143 136.216 232.01 137.619 232.5 139.008 232.985 138.072 235.661 138.072 235.661 138.072 235.661 140.557 236.351 140.624 238.955 140.667 240.643 138.442 244.988 138.442 244.988 138.442 244.988 139.555 246.1 137.775 249.841 136.723 252.051 128.136 256.556 127.602 256.496 127.068 256.437 125.651 258.433 123.929 258.433 122.207 258.433 117.682 258.456 116.257 259.049 114.833 259.641 109.26 259.375 106.411 257.119 103.562 254.863 94.8278 248.244 92.9882 247.354 91.1486 246.464 88.5589 245.277 88.5589 244.386 88.5589 243.496 88.0364 238.847 88.9512 235.187Z" fill="#FFFFFF" transform="matrix(1.00157 0 0 1 741 68)"/><path d="M17.932 222.934C17.1646 219.324 13.3853 218.306 13.2035 222.851 12.9959 226.914 18.4144 227.352 17.932 222.934Z" fill="#FFFFFF" transform="matrix(1.00157 0 0 1 741 68)"/><path d="M42.5766 204.737C40.3133 202.437 25.0755 210.107 25.4148 212.627 25.9817 213.909 27.8685 213.461 29.0539 213.921 33.5891 214.82 38.2733 215.738 42.7212 213.914 47.3108 212.071 45.0804 206.991 42.5766 204.737Z" fill="#FFFFFF" transform="matrix(1.00157 0 0 1 741 68)"/><path d="M128.907 237.85C131.941 235.662 135.727 233.214 135.727 233.214 136.56 232.692 136.366 231.897 135.483 231.465L122.505 225.29C122.505 225.29 113.454 226.417 112.665 227.383 112.408 227.7 106.704 232.954 110.884 239.142 111.063 239.407 111.383 239.545 111.698 239.489 113.511 239.172 119.786 238.236 122.726 239.848 123.018 240.007 125.872 240.036 128.907 237.85Z" fill="#FFFFFF" transform="matrix(1.00157 0 0 1 741 68)"/><path d="M174.459 172.8C165.355 137.118 152.734 131.13 152.734 131.13 147.895 126.832 133.679 123.341 129.399 122.845 128.818 122.778 128.374 123.349 128.579 123.897 128.805 124.502 129.043 125.204 129.12 125.674 129.857 130.146 127.131 134.325 124.152 136.918 117.85 142.402 108.362 142.996 100.734 139.589 91.4936 135.46 84.1711 127.778 81.3237 123.027 80.8255 122.194 80.6208 121.333 80.7897 120.712 80.9014 120.301 81.3624 118.928 80.9801 118.928 61.0153 118.983 46.3359 123.296 36.1803 130.358 13.2493 146.302 11.6058 172.979 11.6058 172.979 33.5433 185.913 44.691 181.43 48.4303 179.331 48.9915 179.016 49.6643 179.507 49.5427 180.14L45.2035 202.659C59.3576 205.648 92.3354 226.937 92.3354 226.937 99.5678 220.118 104.896 218.254 107.116 218.032 110.382 217.706 111.331 218.447 111.331 218.447 111.331 218.447 121.88 218.2 122.98 219.122 124.079 220.042 124.539 220.764 124.539 220.764 124.539 220.764 137.981 224.476 138.192 232.072L138.073 235.664 139.171 236.109C142.328 238.517 138.488 245.132 138.488 245.132 139.141 245.755 138.774 248.82 137.771 250.508 136.767 252.196 130.849 254.47 129.94 255.105 129.01 255.753 126.201 257.716 123.618 258.429 121.036 259.142 118.81 258.191 113.201 259.527 110.313 260.214 102.328 254.188 98.6888 251.357 95.9459 249.222 91.1658 246.297 88.9769 244.986 88.2483 244.549 87.3821 244.406 86.5504 244.585 72.5367 247.622 54.1767 248.442 41.4442 244.464 40.4235 244.144 39.3899 244.916 39.3956 245.984L39.4701 258.384C39.4729 258.794 39.7492 259.153 40.1472 259.255 85.7344 270.961 156.94 259.759 156.94 259.759 156.997 244.359 156.044 231.443 155.494 220.881 153.9 190.25 151.221 178.766 151.221 178.766 170.744 175.888 174.459 172.8 174.459 172.8Z" fill="#FFFFFF" transform="matrix(1.00157 0 0 1 741 68)"/><path d="M187.653 254.9C184.012 227.78 181.905 200.397 175.932 173.641 176.216 173.157 176.09 172.544 175.613 172.24 171.138 152.532 162.365 128.736 140.236 124.018 135.439 122.918 130.629 121.87 125.837 120.744 124.386 117.355 123.786 113.523 123.793 109.845 123.794 109.646 123.524 109.516 123.383 109.675 119.428 113.931 123.312 124.586 127.521 127.615 127.035 133.864 121.054 138.421 115.407 140.069 106.913 142.421 97.8284 137.101 91.4879 131.939 89.4522 130.281 87.5926 128.458 85.7573 126.586 84.3515 125.151 83.0502 123.484 81.454 122.238 86.8811 116.612 88.5417 108.023 88.7178 100.385 88.725 98.6659 86.0536 98.6644 86.0465 100.385 86.0193 106.623 84.6321 112.798 81.3939 118.102 22.8194 116.074 8.58661 153.554 6.30897 204.912 6.30467 213.896 5.44286 224.066 11.0747 231.685 12.7754 233.947 15.285 236.265 18.3342 235.987 24.3497 240.106 31.0166 243.074 37.9397 245.24 37.1738 249.819 36.1903 254.99 37.7851 259.479 38.1831 260.484 39.1265 261.187 40.2503 260.878 41.208 260.615 42.0498 259.425 41.6489 258.414 40.2259 254.5 41.1951 250.197 41.1049 246.139 55.7285 249.997 71.1953 249.961 85.9692 246.956 86.9985 246.718 87.8288 246.518 88.6147 245.859 88.7693 245.921 88.9512 245.925 89.1187 245.881 91.1544 247.278 93.2445 248.591 95.1828 250.131 99.7152 253.647 103.877 257.893 109.281 260.062 111.371 260.788 113.853 261.402 115.981 260.533 116.025 260.507 116.714 259.853 116.784 259.763 120.15 259.037 124.602 260.812 127.14 257.78 127.303 257.846 127.508 257.835 127.647 257.716 131.168 254.652 136.826 254.024 138.833 249.394 139.125 248.564 140.369 245.288 139.404 244.853 140.527 242.999 141.473 240.792 141.361 238.581 141.283 237.289 140.485 235.439 139.079 235.203 139.341 234.103 139.334 232.924 138.5 232.274 138.966 232.136 139.399 231.511 139.038 231.04 138.087 229.806 137.546 228.331 136.517 227.124 134.587 224.858 131.936 223.394 129.31 222.079 127.93 221.475 126.666 220.561 125.255 220.051 123.95 216.77 121.258 218.37 118.572 218.004 116.174 217.865 113.591 217.387 111.224 217.936 110.031 217.193 108.265 217.49 106.922 217.589 101.306 218.236 96.2035 221.44 92.6217 225.74 90.9353 224.154 88.8925 223.031 86.9713 221.764 83.6772 219.703 80.3116 217.756 76.9187 215.865 69.579 211.775 61.9859 207.981 54.1781 204.869 51.7215 203.89 49.106 202.809 46.439 202.498 47.0861 200.934 47.2851 199.028 47.6286 197.428 48.0753 195.345 48.4876 193.255 48.8784 191.159 50.7466 181.258 52.2025 171.288 52.3586 161.196 52.4273 158.858 52.4373 156.532 52.3629 154.193 52.2884 151.849 52.3042 149.483 51.5941 147.224 51.4438 146.745 50.7037 146.697 50.5763 147.224 50.0852 149.258 50.1153 151.312 50.0523 153.389 49.9907 155.425 49.902 157.459 49.8562 159.497 49.6987 165.694 49.441 171.893 48.532 178.034 47.3953 178.213 46.5492 178.987 45.4913 179.403 44.5192 179.811 43.4699 180.06 42.4334 180.237 33.3272 181.43 20.7221 178.277 13.4053 172.684 20.2525 135.114 43.5429 120.546 80.2901 119.769 79.5242 120.671 79.1663 121.528 80.356 122.151 81.5499 126.241 85.9964 130.441 89.1072 133.294 96.2465 139.479 105.874 144.909 115.609 142.896 123.611 141.003 132.089 133.413 130.301 124.514 132.434 125.004 134.57 125.486 136.706 125.962 159.654 129.376 168.46 152.588 172.953 172.587 166.046 174.959 158.804 176.107 151.767 178.005 151.235 176.361 150.616 174.511 150.707 172.83 150.742 172.175 149.819 172.124 149.62 172.683 148.836 175.537 150.273 178.499 150.738 181.295 153.785 205.029 154.646 229.015 155.69 252.907 155.756 255.139 155.69 257.392 156.148 259.585 156.357 260.589 157.972 260.592 158.181 259.585 158.577 257.673 158.479 255.756 158.429 253.812 157.65 232.068 156.476 210.295 153.86 188.685 153.458 185.673 153.12 182.617 152.286 179.689 159.442 178.574 166.53 176.936 173.474 174.879 179.317 201.227 181.415 228.188 184.984 254.891 185.082 255.611 185.53 256.218 186.32 256.227 186.964 256.243 187.749 255.616 187.653 254.9ZM125.229 256.996C122.452 258.519 119.127 257.006 116.243 258.251 116.201 258.238 116.16 258.23 116.115 258.221 116.038 258.182 115.959 258.151 115.881 258.122 114.966 257.475 114.763 256.14 114.448 255.126 116.47 254.662 118.396 253.951 120.429 253.546 122.655 253.072 124.778 253.073 127.001 253.082 126.731 254.583 126.659 256.167 125.229 256.996ZM122.731 226.018C122.742 226.013 122.752 226.006 122.764 226.001 124.033 226.619 125.319 227.257 126.572 227.913 129.406 229.485 131.911 231.545 135.161 232.362 132.616 233.851 131.021 235.615 128.745 237.191 127.326 238.19 125.58 238.613 123.978 239.208 123.867 239.25 123.797 239.337 123.773 239.434 120.595 237.844 114.774 238.074 111.292 238.697 111.287 238.693 111.28 238.689 111.274 238.684 109.041 234.309 109.938 231.133 113.278 227.757 115.561 227.418 117.614 226.774 119.855 226.472 120.768 226.327 121.877 226.364 122.731 226.018ZM124.819 240.147C129.307 240.773 132.219 236.155 135.8 234.275 136.113 234.092 137.062 233.472 137.337 233.767 137.675 234.129 137.241 235.197 137.114 235.568 136.482 237.41 135.293 239.253 133.984 240.691 131.893 242.706 128.647 242.438 126.038 243.358 126.227 242.166 125.711 240.969 124.819 240.147ZM111.854 240.185C113.238 240.13 114.641 239.845 116.025 239.788 118.349 239.694 125.267 239.57 124.234 243.34 123.074 245.954 115.514 244.517 113.058 245.418 112.824 243.4 110.368 242.213 111.854 240.185ZM112.816 247.394C112.976 246.972 113.068 246.572 113.095 246.176 115.51 246.864 121.739 246.919 124.059 245.838 125.913 247.012 128.46 248.615 127.744 251.198 123.096 250.558 118.287 251.885 114.173 254.019 113.952 253.089 113.726 252.155 113.347 251.289 112.568 249.77 111.949 249.098 112.816 247.394ZM137.96 246.937C136.328 252.344 131.612 252.238 128.138 255.415 128.327 254.523 128.363 253.613 128.531 252.718 128.597 252.626 128.649 252.525 128.683 252.416 129.101 252.062 129.319 251.564 129.392 251.012 130.581 250.77 131.721 250.125 132.836 249.669 134.699 248.899 136.687 248.035 138.079 246.555 138.041 246.685 138.003 246.814 137.96 246.937ZM139.367 237.615C140.104 239.828 138.865 242.219 137.735 244.084 136.769 245.59 135.449 246.504 133.853 247.287 132.458 247.971 130.513 248.568 129.342 249.738 128.927 247.476 127.15 245.862 124.973 245.26 125.053 245.191 125.131 245.122 125.204 245.048 125.93 245.543 130.04 244.207 131.125 243.987 132.43 243.635 133.918 243.2 134.915 242.24 136.46 240.756 137.681 238.679 138.548 236.732 138.856 236.985 139.185 237.207 139.367 237.615ZM125.554 221.855C125.554 221.853 125.554 221.852 125.554 221.85 129.954 224.079 135.236 225.84 137.331 230.723 132.357 231.007 128.032 225.076 123.448 225.202 124.596 224.563 125.471 223 125.554 221.855ZM116.711 219.581C118.234 219.796 119.799 219.923 121.336 219.815 122.404 219.739 123.027 219.623 123.515 220.727 124.304 222.55 122.807 223.167 121.835 224.308 120.182 224.421 118.582 224.798 116.979 225.182 115.498 225.542 113.71 225.842 112.24 226.509 111.884 223.711 114.426 221.813 112.075 218.864 113.6 219.195 115.172 219.364 116.711 219.581ZM102.458 220.532C103.818 219.923 105.24 219.507 106.696 219.201 107.958 218.934 109.32 218.953 110.575 218.671 111.042 219.473 111.722 220.16 111.788 221.14 111.839 221.922 111.513 222.696 111.259 223.419 110.73 224.93 110.501 226.383 110.995 227.866 109.632 229.428 108.674 231.287 108.554 233.413 108.445 235.327 109.01 238.193 110.514 239.611 108.793 242.099 111.126 243.464 111.709 245.662 111.818 246.32 111.536 246.833 111.31 247.434 110.741 248.936 111.136 249.955 111.836 251.329 112.884 253.457 112.943 255.849 114.108 257.959 105.386 258.413 97.7926 245.41 89.6555 244.693 87.2003 234.869 93.4377 224.516 102.458 220.532ZM63.2056 211.161C72.8301 216.12 82.2571 221.535 91.2231 227.598 88.118 232.102 86.7122 237.634 87.4451 243.068 85.627 242.906 83.7331 243.453 81.9235 243.692 80.1584 244.003 78.5235 244.262 76.8872 244.482 77.3296 243.407 77.0118 242.104 77.0504 240.962 77.1535 238.142 77.938 235.376 79.0833 232.809 79.5786 231.704 80.4848 230.501 80.5005 229.26 80.5048 228.859 80.0381 228.582 79.6917 228.796 78.5321 229.515 78.0082 231.133 77.4899 232.332 76.3361 234.995 75.5272 237.848 75.4872 240.766 75.47 241.965 75.4041 243.636 76.2831 244.564 64.4253 246.038 52.1796 245.828 40.5437 242.953 40.2431 242.67 39.795 242.577 39.3756 242.656 32.849 240.953 26.5458 238.434 20.5761 235.301 27.1828 230.834 26.7806 221.163 26.122 214.073 30.7575 216.33 40.2374 217.517 44.6724 214.521 48.3115 212.058 46.8527 207.341 44.409 204.551 44.9315 204.525 45.3639 204.203 45.4412 203.749 45.6645 203.688 45.8678 203.55 46.021 203.326 51.9663 205.354 57.6483 208.292 63.2056 211.161ZM26.4742 202.747C26.8192 201.296 27.4391 199.509 28.4369 198.536 30.4926 196.825 34.9033 195.488 37.6777 195.471 39.1637 195.345 39.7621 196.146 39.9081 197.536 40.1472 199.25 39.9368 201.017 40.0985 202.742 34.7773 204.345 30.076 206.973 25.9001 210.521 25.7899 207.901 25.8672 205.3 26.4742 202.747ZM42.5351 206.086C44.3031 208.124 45.676 211.65 42.3576 212.934 37.2268 215.045 31.5706 213.222 26.3267 212.343 30.5857 208.604 36.0529 206.242 41.5344 205.077 41.8894 205.434 42.2745 205.767 42.5351 206.086ZM45.3324 195.983C44.9616 198.049 44.3059 200.066 44.0024 202.14 43.6732 202.148 43.3425 202.166 43.0104 202.198 45.2207 191.313 38.614 189.988 29.9544 193.663 26.0533 195.106 24.2538 197.273 23.2002 201.263 20.9769 209.397 24.1522 217.954 22.4243 226.122 21.8173 228.404 20.8667 231.213 18.6807 232.413 15.9807 233.359 13.3709 229.246 12.2901 227.147 7.1579 215.438 10.2573 192.984 12.0525 180.223 19.6828 188.499 36.1431 191.054 46.7683 188.572 46.323 191.049 45.8492 193.521 45.3324 195.983ZM16.1096 176.748C23.9832 181.45 39.7392 185.78 48.1111 180.806 47.8434 182.493 47.5513 184.187 47.2478 185.895 36.5139 188.748 20.6835 186.331 12.2958 178.724 12.5292 177.313 12.7783 175.905 13.046 174.499 13.9765 175.416 15.1604 176.169 16.1096 176.748Z" transform="matrix(1.00157 0 0 1 741 68)"/><path d="M14.154 219.52C11.4397 221.448 12.5492 227.482 16.4574 226.613 21.1416 225.432 17.3107 217.073 14.154 219.52ZM16.1038 225.008C14.7725 225.457 14.207 223.814 14.207 222.805 14.207 222.088 14.5062 221.295 14.9428 220.712 15.8376 220.91 16.5405 221.593 16.791 222.475 17.0544 223.283 17.0931 224.676 16.1038 225.008Z" transform="matrix(1.00157 0 0 1 741 68)"/><path d="M81.9121 227.104C82.187 226.788 82.4318 226.45 82.6966 226.124 83.0115 225.734 83.4467 225.333 83.4353 224.799 83.4296 224.53 83.212 224.301 82.9371 224.301 82.0195 224.324 81.2564 225.796 80.9987 226.572 80.8756 227.071 81.537 227.535 81.9121 227.104Z" transform="matrix(1.00157 0 0 1 741 68)"/><path d="M-5863.06-3940.25C-5863.63-3943.11-5863.62-3946.06-5865.88-3951.29-5873.38-3966.49-5923.59-3961.39-5928.71-3946.23-5931.49-3938-5932.05-3933.15-5932.78-3926.01-5932.99-3922.23-5932.85-3915.55-5932.49-3911.47-5932.49-3910.19-5931.4-3906.05-5931.49-3904.75-5933.64-3903.1-5934.57-3900.06-5934.71-3897.52-5935.66-3889.69-5930.59-3887.7-5923.83-3887.93-5922.04-3883.62-5915.6-3875.54-5910.96-3872.66-5901.78-3867.54-5890.69-3865.74-5880.35-3867.3-5874.8-3867.67-5865.04-3871.08-5861.24-3880.15-5859.97-3883.17-5858.49-3894.61-5858.98-3908.18-5859.21-3914.64-5859.6-3921.61-5861.2-3928.3L-5863.06-3940.25Z" fill="#FFFFFF" transform="matrix(1.00157 0 0 1 6754.46 4050.65)"/><path d="M-5885.82-3864.73C-5889.66-3864.78-5893.54-3865.28-5897.1-3866.71-5898.18-3867.24-5903.06-3869.39-5900.38-3870.8-5899.59-3870.92-5897.93-3871.63-5897.93-3870.29-5886.12-3866.44-5870.43-3867.54-5863.3-3880.02-5861.86-3882.8-5861.4-3885.91-5861.01-3889.13-5859.4-3900.58-5861.01-3918.68-5862.95-3931.7L-5862.95-3931.7C-5863.16-3933.32-5863.39-3935.01-5863.59-3936.67-5864.51-3936.94-5865.61-3937.4-5865.95-3938.37-5866.52-3938.49-5867.05-3938.83-5867.38-3939.32-5869.1-3941.61-5871.85-3942.14-5874.3-3943.01-5875.47-3943.41-5876.65-3943.99-5877.92-3943.97-5880.22-3943.7-5883.05-3943.64-5884.29-3946.02-5887.94-3945.26-5891.66-3946.22-5895.33-3945.99-5898.28-3945.93-5901.44-3943.1-5904.2-3945.03-5908.79-3944.07-5913.15-3942.21-5917.47-3940.49-5917.49-3940.49-5917.49-3940.49-5917.49-3940.49-5918.98-3937.17-5925.06-3942.18-5927.65-3942.37-5930.29-3933.82-5931.52-3925.09-5931.49-3916.08-5931.71-3913.67-5930.87-3909.89-5931.62-3907.31L-5931.62-3907.31C-5932.56-3906.36-5933.28-3910.37-5933.38-3911.05-5935.18-3921.65-5934.34-3933.28-5930.82-3943.51-5932.53-3943.97-5931.62-3946.96-5931.52-3948.27-5930.29-3957.66-5922.67-3966.72-5913.48-3968.94-5908.9-3971.37-5904.06-3973.29-5899.05-3974.62-5896.55-3975.14-5891.15-3977.51-5890.23-3973.56-5887.94-3974.06-5874.53-3976.08-5877.46-3971.04-5875.62-3970.81-5871.49-3970.7-5872.55-3967.88L-5872.55-3967.86-5872.55-3967.86C-5870.42-3967.45-5868.14-3966.63-5866.64-3965.02-5863.78-3965.5-5851.91-3964.14-5855.99-3959.38-5852.84-3958.39-5850.85-3954.84-5851.82-3951.64-5849.72-3949.61-5850.23-3945.66-5853-3944.5-5852.42-3942.48-5854.77-3941.24-5856.3-3940.52-5856.72-3938.16-5859.35-3936.73-5861.59-3936.5-5858.19-3921.37-5855.97-3905.85-5857.33-3890.42-5857.56-3874.41-5870.46-3864.58-5885.82-3864.73ZM-5911.68-3872.59C-5913.05-3872.59-5914.61-3873.8-5915.64-3874.57-5919.55-3877.46-5923.13-3881.5-5924.03-3886.41-5931.07-3883.56-5936.79-3889.81-5936.27-3896.79-5936.36-3900.84-5934.85-3906.09-5930.55-3907.17-5928.53-3907.74-5925.66-3907.55-5924.73-3905.33-5924.68-3905.05-5925.06-3905.19-5925.19-3905.23-5927.28-3905.95-5929.56-3905.03-5930.9-3903.36-5933.42-3899.84-5933.09-3892.13-5929.7-3890.39-5927.34-3889.4-5924.88-3890.3-5922.5-3889.37-5921.34-3888.93-5921.73-3887.65-5922.66-3887.2-5919.84-3884.09-5917.49-3881.05-5914.1-3878.63-5912.64-3877.39-5909.83-3876.82-5909.59-3874.64-5909.64-3873.57-5910.57-3872.56-5911.68-3872.59ZM-5922.03-3895.76C-5924.68-3895.83-5925.55-3899.49-5928.4-3899.13-5929.8-3899.42-5932.42-3897.12-5930.26-3899.79-5928.35-3901.83-5925.51-3901.97-5923.07-3900.45-5922.08-3899.85-5920.68-3899.41-5920.17-3898.32-5919.46-3896.97-5920.71-3895.73-5922.03-3895.76Z" transform="matrix(1.00157 0 0 1 6754.46 4050.65)"/><path d="M-1072.35-1088.36C-1071.76-1089.54-1069.8-1091.15-1067.1-1091.42-1061.95-1091.93-1054.7-1089.87-1054.7-1089.87L-1054.6-1085.98C-1054.6-1085.98-1066.76-1084.1-1071.3-1084.35-1073.02-1084.45-1073.01-1086.84-1072.35-1088.36Z" fill="#FFFFFF" transform="matrix(1.00157 0 0 1 1921.04 1250.48)"/><path d="M-1071.45-1081.86C-1071.99-1083.03-1060.72-1086.2-1057.24-1084.03-1053.75-1081.86-1054.84-1078.9-1054.84-1078.9-1054.84-1078.9-1069.51-1075.56-1071.45-1081.86Z" fill="#FFFFFF" transform="matrix(1.00157 0 0 1 1921.04 1250.48)"/><path d="M-1050.94-1081.74C-1051.45-1081.73-1051.95-1081.59-1052.41-1081.35-1052.5-1081.31-1052.7-1081.22-1052.79-1081.17L-1052.86-1081.14C-1052.83-1081.38-1052.86-1081.63-1052.92-1081.87L-1052.98-1082.08C-1053.17-1082.95-1053.3-1083.83-1053.38-1084.72-1053.53-1086.12-1053.71-1087.44-1053.92-1088.85-1053.93-1088.97-1053.94-1089.1-1053.95-1089.22-1052.17-1089.49-1049.84-1089.56-1048.54-1090.82-1048.6-1091.01-1048.83-1090.94-1048.98-1090.95-1051.12-1090.82-1053.25-1090.59-1055.39-1090.91-1056.84-1091.13-1058.29-1091.44-1059.7-1091.85-1077.79-1097.99-1080.67-1076.46-1063.18-1075.94-1059-1076.15-1055.31-1076.82-1051.55-1078.35-1051.06-1078.6-1050.63-1078.94-1050.29-1079.36-1049.96-1079.77-1049.78-1080.29-1049.78-1080.83-1049.78-1081.07-1049.88-1081.29-1050.05-1081.46-1050.29-1081.68-1050.62-1081.75-1050.94-1081.74ZM-1069.99-1081.27C-1070.03-1081.3-1070.04-1081.36-1070.01-1081.4-1069.16-1082.37-1066-1083.05-1064.45-1083.06L-1064.45-1083.06C-1063.43-1083.09-1062.05-1082.8-1061.86-1081.62-1060.43-1084.01-1056.18-1083.48-1055.85-1080.13-1060.22-1078.91-1066.69-1077.9-1069.99-1081.27ZM-1055.81-1087.92C-1055.82-1087.77-1055.84-1087.64-1055.85-1087.54-1056.04-1087.56-1056.23-1087.57-1056.42-1087.56-1061.55-1087.33-1066.8-1086.72-1071.64-1086.09-1070.96-1088.94-1068.28-1089.82-1065.26-1089.87L-1065.26-1089.87C-1062.05-1089.82-1058.88-1088.92-1055.65-1089.1-1055.73-1088.71-1055.78-1088.31-1055.81-1087.92Z" transform="matrix(1.00157 0 0 1 1921.04 1250.48)"/><path d="M-1055.56-1096.25C-1057.36-1096.19-1063.83-1098.4-1061.23-1100.82-1061-1101.02-1060.71-1101.14-1060.4-1101.14-1060.17-1101.14-1059.95-1101.07-1059.76-1100.95-1059.7-1100.9-1059.62-1100.84-1059.55-1100.78L-1059.55-1100.78C-1058.03-1099.54-1055.1-1097.51-1053.3-1099.52-1052.95-1099.98-1052.74-1100.53-1052.7-1101.11L-1052.74-1101.09C-1052.76-1101.08-1052.78-1101.07-1052.8-1101.06L-1052.8-1101.11-1052.72-1101.14-1052.7-1101.15C-1052.7-1101.14-1052.7-1101.13-1052.7-1101.11L-1052.66-1101.14-1052.64-1101.15C-1052.62-1101.16-1052.61-1101.17-1052.62-1101.17-1052.65-1101.17-1052.67-1101.16-1052.7-1101.15-1052.64-1102.81-1054.18-1104.36-1055.64-1105.25-1055.82-1105.4-1055.88-1105.65-1055.79-1105.87-1055.68-1106.2-1055.36-1106.43-1055.01-1106.42-1052.33-1106.22-1050.17-1103.71-1050.51-1101.02-1050.66-1098.43-1052.92-1096.14-1055.56-1096.25Z" transform="matrix(1.00157 0 0 1 1921.04 1250.48)"/><path d="M-1070.74-1105.64C-1071.69-1105.64-1072.39-1106.44-1072.8-1107.22-1073.22-1108.04-1073.46-1108.93-1073.51-1109.85L-1073.51-1109.9C-1073.48-1110.85-1073.26-1111.79-1072.86-1112.66-1072.26-1114.24-1070.16-1115.38-1069.27-1113.06-1068.49-1110.89-1068.13-1108.23-1069.64-1106.12-1069.93-1105.81-1070.32-1105.64-1070.74-1105.64Z" transform="matrix(1.00157 0 0 1 1921.04 1250.48)"/><path d="M-1047.26-1106.07C-1047.68-1106.07-1048.08-1106.25-1048.36-1106.56-1049.28-1107.68-1049.38-1109.14-1049.37-1110.5-1049.32-1111.55-1049.11-1112.58-1048.7-1113.55-1047.8-1115.81-1045.72-1114.63-1045.13-1113.09-1044.74-1112.22-1044.52-1111.28-1044.49-1110.33L-1044.49-1110.28C-1044.53-1109.36-1044.78-1108.47-1045.2-1107.65-1045.6-1106.86-1046.31-1106.07-1047.26-1106.07L-1047.26-1106.07Z" transform="matrix(1.00157 0 0 1 1921.04 1250.48)"/><path d="M-1077.8-1114.48C-1078.96-1114.5-1079.13-1116.02-1078.96-1116.88-1078.5-1119.34-1076.99-1121.66-1074.8-1122.9-1072.69-1124.12-1069.17-1124.34-1067.9-1121.87-1067.73-1121.53-1067.74-1121.12-1067.93-1120.78-1068.12-1120.48-1068.45-1120.3-1068.8-1120.3-1070.73-1120.22-1072.85-1120.6-1074.45-1119.33-1075.21-1118.72-1075.88-1118-1076.41-1117.18-1076.87-1116.48-1077.51-1115.76-1077.45-1114.85-1077.44-1114.76-1077.47-1114.67-1077.54-1114.61-1077.61-1114.53-1077.7-1114.49-1077.8-1114.48Z" transform="matrix(1.00157 0 0 1 1921.04 1250.48)"/><path d="M-1041.66-1115.95C-1042.57-1115.94-1043.12-1116.83-1043.51-1117.5-1043.68-1117.81-1043.88-1118.11-1044.1-1118.39-1045.52-1119.97-1047.72-1120.78-1049.82-1120.4-1050.42-1120.27-1050.88-1120.14-1050.74-1119.64-1050.67-1119.47-1050.93-1119.33-1051.04-1119.46-1051.76-1120.23-1050.94-1121.3-1050.23-1121.74-1049.09-1122.45-1047.74-1122.74-1046.4-1122.63-1043.72-1122.32-1039.68-1120.42-1040.11-1117.11-1040.23-1116.39-1041-1115.95-1041.66-1115.95L-1041.66-1115.95Z" transform="matrix(1.00157 0 0 1 1921.04 1250.48)"/></g></svg>