<svg width="194" height="278" xmlns="http://www.w3.org/2000/svg" xmlns:xlink="http://www.w3.org/1999/xlink" xml:space="preserve" overflow="hidden"><defs><clipPath id="clip0"><rect x="742" y="374" width="194" height="278"/></clipPath></defs><g clip-path="url(#clip0)" transform="translate(-742 -374)"><path d="M-2601.87 173.434C-2607.99 173.417-2613.19 173.029-2618.94 171.711-2620 173.248-2622.53 173.207-2623.47 171.581-2624.07 170.915-2624.97 169.147-2624.8 169.241-2631.49 146.801-2627.76 123.172-2623.78 99.6355-2621.06 81.2014-2612.18 63.5802-2607.54 46.0492-2604.55 38.3245-2613.76 30.5955-2607.26 24.2213-2608.08 19.8198-2603.82 16.1113-2599.68 15.8488-2595.46 3.70008-2581.45 5.83377-2571.36 10.8434-2565.6 13.701-2563.67 19.2907-2559.18 19.1792-2558.57 18.1801-2557.73 16.1917-2556.75 13.8887L-2556.75 13.8873C-2555.44 10.9605-2553.34 5.35961-2551.32 3.68597-2544.17 0.114305-2532.76 2.79835-2525.82 3.40656-2519.44 3.51804-2518.28 9.14578-2516.38 15.496-2510.61 13.5994-2495.75 11.6958-2488.1 15.3549-2484.63 17.0187-2483.13 16.5445-2484.18 21.0306-2484.95 22.9893-2487.45 26.8376-2488.65 28.0103-2488.97 28.6777-2488.16 29.1942-2488.41 29.8575-2491.63 38.5757-2491.66 45.2787-2490.67 54.6573-2488.28 71.4545-2483.18 91.7202-2480.1 108.54-2478.8 122.722-2467.06 158.222-2475.92 168.399-2478.77 170.794-2482.77 169.008-2486.21 169.694-2497.92 171.234-2509.3 171.745-2521.97 171.74-2548.3 171.378-2601.57 173.434-2601.87 173.434Z" fill="#FFFFFF" transform="matrix(1.00347 0 0 1 3398.53 468.548)"/><path d="M-2521.67 153.124C-2521.64 151.839-2523.36 118.233-2522.69 102.65-2522.14 78.063-2517.06 56.0798-2516.27 29.4186L-2515.63 24.9805C-2515.82 22.7367-2516.41 19.6745-2516.49 17.442-2516.59 14.7213-2515.97 14.8102-2515.93 14.6705-2505.75 12.1177-2498.61 11.7395-2489.41 13.8436-2489.34 13.8605-2488.99 14.003-2488.92 14.0369-2488.06 14.4899-2487.83 15.4255-2484.68 17.5239-2484.23 18.6077-2484.83 19.9257-2485.53 20.9629-2486.22 22.0072-2486.66 24.7999-2486.66 24.9579-2486.69 25.8879-2486.99 26.7854-2487.52 27.5474-2488.13 28.4139-2488.5 29.341-2488.5 29.341-2488.5 29.341-2489.72 33.3614-2490.6 35.2524-2497.85 51.5161-2502.28 68.8353-2506.5 86.6019-2512.33 111.175-2516.82 136.303-2516.46 160.98-2516.45 161.692-2517.49 162.259-2517.73 161.584-2518.43 159.527-2521.42 153.717-2521.67 153.124ZM-2553.39 98.0917-2556.16 98.237C-2556.95 89.262-2557.91 76.807-2559.89 67.9675-2560.38 65.7322-2560.76 64.0444-2561.33 62.2127-2564.47 50.4041-2569.38 39.3786-2576 29.0912-2583.76 26.8362-2590.38 29.6035-2598.4 31.9728-2601.97 32.8506-2604.87 33.7029-2608.37 33.1921-2611.89 32.1196-2610.36 27.4148-2609.59 24.4965-2608.53 20.4704-2603.53 16.9495-2600.95 17.1302-2600.1 17.0765-2600.68 13.0364-2599.57 11.4403-2595.57 8.48112-2588.81 7.29997-2583.85 7.17296-2579.22 7.15744-2574.93 8.38657-2570.75 10.382-2569.02 11.0297-2566.07 13.3694-2566.07 14.9767-2560.01 20.3095-2546.32 21.1308-2537.72 21.8632-2536.88 21.9338-2536.4 22.8101-2536.79 23.558-2547.11 44.4264-2550.47 74.8836-2553.39 98.0917Z" fill="#FFFFFF" transform="matrix(1.00347 0 0 1 3398.53 468.548)"/><path d="M-2517.71 44.6381C-2517.71 44.6381-2519.78 64.7966-2520.6 73.615-2522.21 91.1967-2523.2 108.852-2523.07 126.513-2523.03 131.079-2522.6 141.17-2522.6 141.17-2522.38 146.141-2519.63 159.219-2519.63 159.219-2519.47 161.462-2519 166.12-2518.03 168.153-2517.09 170.135-2512.32 172.991-2511.72 173.111-2524.03 173.363-2540.19 172.965-2552.52 172.668-2551.24 172.466-2550.52 171.453-2550.33 170.161-2550.01 167.551-2550.63 164.908-2552.07 162.71-2552.22 162.489-2552.91 152.709-2553.08 150.342-2553.44 145.597-2553.71 140.844-2553.8 136.089-2554.02 126.577-2553.86 117.068-2553.32 107.559-2552.25 88.5846-2549.73 67.4764-2545.62 48.9167-2545.32 47.5648-2545.17 46.8141-2544.86 45.4636-2541.65 47.1245-2535.81 47.1189-2532.31 47.1429-2527.94 47.1711-2517.71 44.6381-2517.71 44.6381Z" fill="#FFFFFF" transform="matrix(1.00347 0 0 1 3398.53 468.548)"/><path d="M-2460.64 162.267C-2460.74 161.943-2460.86 161.632-2461.05 161.347-2458.65 144.266-2467 127.815-2469.88 111.144-2474.02 86.5794-2472.04 58.6128-2489.89 38.9595-2488.89 35.79-2487.8 32.8125-2487.17 29.4398-2484.02 28.2502-2481.57 24.6856-2483.2 21.3806-2476.23 12.9065-2497.7 12.0274-2501.7 15.7571-2501.92 15.9448-2501.66 15.925-2501.55 15.9123-2496.3 15.3027-2490.6 14.7947-2485.7 17.6339L-2485.7 17.6339C-2485.26 17.8216-2484.92 18.0248-2485.35 18.3946-2486.22 19.0324-2487.62 18.5893-2488.45 19.3951-2489.82 20.4775-2489.2 22.9286-2487.49 23.249-2487.49 23.2504-2487.32 23.2829-2487.28 23.4536-2487.23 23.6498-2487.35 23.8558-2487.37 23.8657-2488.09 25.0962-2490.06 25.1583-2491.18 25.9782-2498.18 23.4056-2505.03 21.5993-2511.81 18.6486L-2511.81 18.6486C-2513.13 18.1081-2514.52 17.5493-2515.89 17.0173-2516.27 15.6146-2516.62 14.4306-2516.79 16.8169-2516.8 16.8578-2516.8 16.903-2516.8 16.9453-2517.04 22.7706-2517.38 28.5409-2517.86 34.3521-2518.33 37.022-2518.76 39.7907-2519.15 42.5806-2519.63 42.4296-2520.16 42.5044-2520.6 42.7457-2527.25 46.3117-2535.16 46.7816-2542.42 45.0939-2540.98 39.2488-2539.86 34.6766-2537.7 29.4031-2536.73 27.0874-2535.53 24.9128-2534.41 22.6859-2534.15 22.1045-2534.17 21.4258-2534.51 20.8754-2535.52 19.515-2537.49 20.5565-2538.96 20.3081-2546.48 20.1134-2554.86 19.055-2561.89 18.0107-2562.19 17.9416-2562.34 18.4143-2562.02 18.5004-2554.42 21.3171-2546.73 22.5843-2538.8 23.1798-2542.94 30.1355-2544.63 37.7657-2546.64 45.918-2550.4 61.8317-2553.07 78.2196-2554.57 94.4636-2554.57 94.5242-2554.65 94.5256-2554.65 94.465-2555.46 85.7115-2556.92 76.6589-2559.04 68.1312-2559.59 65.8662-2560.03 63.9922-2560.65 62.0434-2563.72 50.4845-2568.08 39.4012-2574.46 29.2521-2574.56 28.9727-2574.72 28.7187-2574.93 28.5112-2575.39 27.9778-2575.61 27.0253-2576.27 26.7938-2576.93 26.8277-2576.55 27.4783-2576.4 27.8466-2585.7 25.5167-2594.57 30.5518-2603.53 32.272-2605.21 32.5034-2607.8 33.2937-2609.09 31.9954-2609.5 30.3542-2607.34 29.214-2606.05 28.6933-2602.31 28.1584-2603.46 22.7988-2606.96 24.2594-2607.03 24.1098-2607.1 23.9433-2607.19 23.9673-2607.24 22.9117-2606.21 21.9437-2605.34 21.2578-2603.53 19.8523-2601.15 18.8772-2598.85 19.3824-2598.09 19.6336-2597.2 19.8537-2596.56 19.2413-2595.53 18.3536-2595.59 16.505-2596.76 15.7613-2597.31 15.393-2597.9 14.9739-2598.35 14.4631-2599.96 12.582-2596.66 11.875-2595.29 11.3077-2587.28 8.02672-2578.01 8.66739-2570.27 12.4536-2568.82 13.0251-2566.84 13.8069-2566.69 15.1926-2565.77 16.553-2565.71 13.5613-2566.07 13.066-2570.53 5.71946-2583.82 4.27866-2591.58 5.78861-2597.27 7.15321-2604.25 8.89741-2602.67 15.0811-2607.48 15.8883-2613.83 21.0236-2611.1 26.3253-2615.1 29.1152-2614.74 35.6306-2609.67 36.9359-2623.85 51.5627-2629.63 73.0703-2630.42 93.5604-2630.3 106.749-2630.32 120.044-2634.83 132.619L-2634.83 132.62C-2637.7 143.606-2643.02 155.828-2637.91 166.885-2637.71 167.479-2637.02 167.799-2636.43 167.648-2635.4 175.356-2626.44 175.961-2620.26 175.414-2614.53 175.226-2608.05 174.959-2602.39 174.715-2601.9 174.694-2598.52 174.547-2598.2 174.533-2583.96 173.904-2565.36 173.218-2551.08 172.711-2546.51 172.137-2548.62 164.366-2550.78 162.122-2553.39 123.333-2552.03 84.9311-2542.9 47.1245-2534.84 50.747-2527.22 49.8453-2519.7 46.5925-2522.9 71.652-2525.41 103.131-2525.09 126.52-2524.93 135.095-2524.82 141.012-2524.07 148.75-2523.8 151.264-2523.32 153.754-2522.65 156.191-2522.55 156.641-2522.21 157.001-2521.77 157.135-2521.56 164.551-2520.6 173.655-2510.99 173.363-2501.84 172.936-2492.52 172.066-2483.49 171.383-2479.18 171.041-2474.72 170.681-2470.36 170.35-2467.84 170.033-2465.07 170.353-2462.76 169.124-2461.29 168.142-2460.14 164.342-2460.64 162.267ZM-2491.73 34.9334C-2491.94 35.3258-2492.14 35.7223-2492.32 36.1146-2492.36 36.1922-2492.71 36.9585-2492.76 37.0544-2493.93 39.6129-2494.94 42.3012-2495.92 44.9019L-2495.92 44.9048C-2509.99 81.3101-2517.16 120.469-2517.35 159.434-2517.35 159.651-2517.4 159.99-2517.45 159.796-2517.75 158.828-2518.04 157.999-2518.28 157.038L-2518.28 157.036C-2518.62 155.617-2519.16 154.246-2519.72 152.911-2521.39 119.134-2519.92 84.1141-2516.34 50.7555-2515.6 43.0731-2514.98 36.4053-2514.71 28.9388-2514.63 26.7078-2515.32 20.1374-2515.63 18.1434-2515.66 17.9712-2515.48 17.8569-2515.32 17.9501-2511.27 20.5-2507.08 22.6704-2502.93 25.0144-2499.74 26.8489-2496.51 28.5338-2493.04 29.9379-2491.92 30.4389-2490.63 30.9709-2489.44 30.4488-2489.43 30.4417-2489.44 30.5151-2489.44 30.5151L-2489.44 30.5165C-2490.13 31.8374-2490.74 33.0933-2491.39 34.5284-2491.54 34.6371-2491.66 34.7754-2491.73 34.9334Z" transform="matrix(1.00347 0 0 1 3398.53 468.548)"/><path d="M-2482.48 125.295C-2482.96 125.276-2483.41 125.673-2483.39 126.165-2483.37 137.844-2482.4 152.553-2480.79 165.514-2480.73 166.563-2478.83 166.713-2478.98 165.514-2480.51 153.335-2481.58 138.124-2481.58 126.167-2481.57 125.67-2481.99 125.262-2482.48 125.295L-2482.48 125.295Z" fill="#FFFFFF" transform="matrix(1.00347 0 0 1 3398.53 468.548)"/><path d="M-2566.63 140.331C-2574.29 144.068-2581.15 149.066-2588.35 154.466-2588.69 154.726-2588.81 155.175-2588.67 155.574-2588.55 156.099-2587.87 156.407-2587.45 156.023-2583.81 153.23-2580.42 150.795-2577.07 148.576-2573.33 146.087-2569.76 143.936-2566.15 142.002-2565.32 141.621-2565.77 140.311-2566.63 140.331Z" fill="#FFFFFF" transform="matrix(1.00347 0 0 1 3398.53 468.548)"/><path d="M-2501.68 139.354C-2505.4 139.559-2496.45 146.86-2495.42 145.515-2494.96 145.146-2494.93 144.331-2495.52 144.08-2497.63 143.046-2499.46 141.561-2500.91 139.731-2501.1 139.492-2501.38 139.353-2501.68 139.354L-2501.68 139.354Z" fill="#FFFFFF" transform="matrix(1.00347 0 0 1 3398.53 468.548)"/><path d="M-2592.13 85.8145C-2594.23 86.4171-2592.72 92.6629-2592.4 94.211-2591.99 95.2792-2590.56 94.8107-2589.65 94.9405-2583.21 94.7387-2576.51 92.9691-2570.51 90.8397-2569.86 88.0145-2574.24 90.4587-2575.54 90.5447-2580.5 91.9164-2585.64 93.336-2590.8 93.1102-2591.24 91.2108-2591.64 88.9925-2591.19 86.9406-2591.02 86.3564-2591.55 85.8004-2592.13 85.8145Z" fill="#FFFFFF" transform="matrix(1.00347 0 0 1 3398.53 468.548)"/><path d="M-2499.71 87.3188C-2503.06 89.2055-2494.82 90.9088-2493.42 90.1962-2490.05 89.516-2488.81 84.6051-2489.6 81.9338-2491.9 80.6412-2490.94 84.5064-2491.46 85.6663-2492.28 89.976-2496.99 88.4308-2499.71 87.3188L-2499.71 87.3188Z" fill="#FFFFFF" transform="matrix(1.00347 0 0 1 3398.53 468.548)"/><path d="M-2600.94 174.652C-2601.61 153.078-2603.35 131.546-2603.41 109.809-2605.02 108.094-2607.41 107.336-2608.97 105.696-2609.23 102.514-2604.49 106.876-2603.39 107.462-2603.08 105.646-2604.35 99.5494-2601.76 101.15-2601.21 106.609-2601.84 112.462-2601.47 118.943-2601.05 137.672-2599.75 155.889-2599.13 174.576-2599.13 174.576-2599.17 175.412-2600.03 175.458-2600.85 175.501-2600.94 174.652-2600.94 174.652Z" fill="#FFFFFF" transform="matrix(1.00347 0 0 1 3398.53 468.548)"/><path d="M88.8556 69.2248C88.8556 69.2248 71.6803 69.9149 74.0383 81.2903 76.6786 94.0247 88.6143 92.0984 88.6143 92.0984L92.9127 97.1391C92.9127 97.1391 107.484 117.346 131.127 116.019 131.127 116.019 143.313 115.044 150.34 102.513 154.867 94.441 155.47 85.3968 155.251 80.2446 154.684 66.9218 150.371 54.3398 150.371 54.3398 150.371 54.3398 138.232 31.39 110.122 34.7768 87.7746 37.4693 90.0536 61.7866 88.8556 69.2248Z" fill="#FFFFFF" transform="matrix(1.00347 0 0 1 742 374)"/><path d="M79.738 75.4594C79.0592 75.7614 79.2455 76.9086 79.9455 77.0512 80.5833 77.181 81.152 77.1274 81.7447 77.4491 82.367 77.7864 82.9117 78.3254 83.3577 78.8701 83.7627 79.3641 84.1028 79.9328 84.3342 80.5283 84.5953 81.1972 84.6573 81.6812 85.2176 82.1779 85.6988 82.6041 86.355 82.511 86.7134 81.9846 87.7859 80.4097 85.9373 78.0855 84.8055 77.006 83.582 75.8347 81.4258 74.7086 79.738 75.4594Z" transform="matrix(1.00347 0 0 1 742 374)"/><path d="M167.487 55.6804C166.854 54.6051 166.099 53.6131 165.474 52.5279 163.399 48.8306 162.279 44.679 159.995 41.0861 157.767 37.5822 155.147 34.2265 151.88 31.6102 154.06 31.9178 156.173 32.701 158.394 32.7052 159.185 32.7066 159.329 31.7033 158.824 31.3364 152.463 18.4538 136.615 11.0015 122.577 13.2636 123.062 12.6511 123.466 11.9568 123.817 11.3486 124.558 10.0348 125.433 8.6561 125.491 7.11793 125.796 6.83146 125.607 6.28252 125.158 6.26841 123.967 6.23313 122.642 6.72421 121.502 7.0389 116.951 8.29766 112.535 9.98542 108.042 11.4262 103.019 13.0519 98.2356 14.8822 94.1136 18.1984 94.5002 17.4152 94.424 16.4316 94.5666 15.5807 94.7387 14.5604 95.0012 13.5627 95.3201 12.5806 95.6108 11.6294 94.1108 11.3895 93.9273 12.335 91.2447 14.6126 89.6007 17.8174 88.2121 20.9953 88.1161 21.2225 88.023 21.6064 87.8381 21.684 87.7012 21.7419 87.0958 21.5965 86.9858 21.5838 86.3409 21.509 85.703 21.4681 85.0539 21.4469 84.6602 21.4342 84.4386 21.7489 84.4259 22.0721 71.1948 28.1189 67.3706 51.2338 66.6889 64.3549 66.6015 66.0243 66.2656 68.3428 67.0036 69.9064 66.9952 69.9657 66.9853 70.025 66.9768 70.0856 66.9133 70.5668 67.6358 70.6953 67.8503 70.3227 68.889 68.5235 69.7258 66.6156 70.8745 64.8784 70.0038 69.778 71.7917 74.6042 72.7217 79.3923 72.3731 82.3698 73.4823 85.3178 75.544 87.467 76.7661 90.8242 78.2648 94.1009 79.841 97.3 80.8147 99.2756 81.8364 101.236 82.9893 103.114 83.8643 104.541 84.8464 105.881 86.2463 106.834 86.5963 107.072 87.0069 106.763 87.0465 106.406 87.5869 106.104 87.6674 105.41 87.7789 104.742 87.8762 104.165 88.0032 103.544 88.0625 102.926 88.4873 104.023 88.9798 105.085 89.5569 106.113 90.1242 107.125 90.8481 108.76 91.9559 109.255 92.1648 109.349 92.3891 109.278 92.495 109.116 92.7956 109.109 93.1117 108.912 93.1554 108.533 93.4094 106.19 93.9682 103.907 94.7627 101.69 95.7449 102.785 96.7694 103.842 97.8405 104.85 99.3744 106.293 100.997 108.083 103.118 108.464 103.781 108.584 104.302 107.96 103.983 107.338 103.046 105.51 101.171 104.4 99.6821 103.007 95.6941 99.2982 92.3764 94.9433 89.4906 90.3401 89.461 90.2766 89.4229 90.2173 89.3791 90.1637 88.9685 89.5146 88.5169 88.833 87.9016 88.4633 87.4204 88.174 86.8658 88.5522 86.8376 89.0743 86.8249 89.3142 86.8531 89.5583 86.9096 89.8011 83.1107 89.9182 79.3768 87.8141 76.9764 84.9509 74.3685 81.7264 74.8413 76.2919 78.6599 74.1808 79.6675 73.6234 80.7922 73.2876 81.9394 73.1888 82.5843 73.1338 83.2377 73.1323 83.8812 73.21 84.615 73.2989 85.394 73.2241 86.1137 73.3468 87.2849 76.6871 88.8118 80.3307 92.0349 82.1483 92.574 82.4432 93.4503 82.3303 93.7297 81.7038 94.4339 80.1303 94.4029 78.3932 94.0416 76.7252 94.7359 77.507 95.5191 78.2281 96.4364 78.8631 96.9867 79.2441 97.9421 78.746 97.8574 78.0474 97.3452 73.8295 97.5583 69.4929 99.6567 65.7054 102.145 61.4493 104.225 59.1039 104.154 53.836 105.358 55.3178 106.642 56.7388 107.911 58.1627 108.589 58.9247 109.676 58.1006 109.502 57.2355 108.633 53.0641 107.301 48.9788 107.393 44.6649 111.558 49.1298 111.348 56.1405 112.526 61.8444 112.662 62.6022 113.943 62.8125 114.257 62.0702 116.193 57.4881 117.247 52.3176 117.31 47.2628 118.398 49.3796 119.409 51.5401 120.244 53.7542 120.625 54.7646 122.146 54.6573 122.18 53.4917 122.251 51.0123 122.309 48.5272 122.307 46.0422 128.744 54.9438 140.05 58.0992 150.342 59.9351 150.697 62.6135 151.503 65.2143 152.137 67.8348 153.409 73.0463 154.013 78.2351 153.757 83.606 153.312 94.1136 149.798 105.55 140.36 111.313 135.55 114.513 130.516 115.071 124.874 114.88 122.917 114.824 120.998 114.523 119.046 114.42 118.198 114.375 118.158 115.544 118.858 115.809 122.169 117.066 126.057 117.227 129.568 117.106 138.589 116.928 146.908 111.155 151.269 103.419 154.015 98.4543 155.422 92.8435 156.061 87.2398 156.678 81.835 156.558 76.2694 155.511 70.9225 154.816 67.348 153.696 63.8737 153.021 60.295 155.895 60.5984 158.79 60.6139 161.614 60.0903 162.274 59.9676 162.16 59.0559 161.614 58.8796 160.935 57.9849 159.726 57.395 158.871 56.7233 157.296 55.4561 155.817 54.1663 154.65 52.4672 157.633 53.9743 160.475 55.3051 163.693 56.1137 164.713 56.3804 166.02 56.7727 167.061 56.3959 167.411 56.3804 167.705 56.0487 167.487 55.6804Z" transform="matrix(1.00347 0 0 1 742 374)"/><path d="M-2761.5-1058.32C-2763.64-1058.36-2765.96-1058.74-2767.65-1060.16-2767.77-1060.27-2767.81-1060.44-2767.77-1060.59-2767.72-1060.75-2767.61-1060.88-2767.44-1060.92-2766.57-1061.09-2765.68-1061.19-2764.79-1061.24-2764.18-1061.29-2763.56-1061.34-2762.95-1061.42-2762.47-1061.5-2761.99-1061.6-2761.53-1061.73-2760.85-1061.94-2760.13-1062.06-2759.43-1062.1-2758.96-1062.11-2758.51-1062.01-2758.1-1061.81-2757.72-1061.6-2757.45-1061.23-2757.35-1060.8-2757.05-1059.86-2757.9-1059.02-2758.71-1058.67-2759.2-1058.49-2759.71-1058.4-2760.23-1058.38-2760.67-1058.34-2761.09-1058.32-2761.5-1058.32Z" transform="matrix(1.00347 0 0 1 3644.92 1539.62)"/><path d="M-2759.71-1075.12C-2761.49-1075.05-2767.86-1077.24-2765.3-1079.62-2765.07-1079.82-2764.77-1079.93-2764.48-1079.94-2764.25-1079.94-2764.04-1079.87-2763.84-1079.74-2762.28-1078.48-2759.35-1076.28-2757.48-1078.33-2755.63-1080.56-2758.51-1083.34-2759.79-1083.98-2759.96-1084.13-2760.02-1084.38-2759.93-1084.59-2759.82-1084.92-2759.51-1085.14-2759.16-1085.14-2756.52-1084.94-2754.4-1082.46-2754.73-1079.81-2754.88-1077.26-2757.1-1075.01-2759.71-1075.12L-2759.71-1075.12Z" transform="matrix(1.00347 0 0 1 3644.92 1539.62)"/><path d="M-2751.61-1085.89C-2753.65-1086.08-2754.26-1088.66-2754.27-1090.37-2754.2-1096.29-2749.01-1096.28-2748.94-1090.37-2748.95-1088.66-2749.58-1086.08-2751.61-1085.89L-2751.61-1085.89Z" transform="matrix(1.00347 0 0 1 3644.92 1539.62)"/><path d="M-2775.48-1085.92C-2776.25-1085.92-2776.95-1086.58-2777.19-1087.21-2777.54-1088.3-2777.63-1089.59-2777.05-1090.61L-2776.99-1090.68C-2777.01-1090.73-2777.01-1090.82-2777.01-1090.87-2778.39-1090.95-2779.99-1091.11-2781.54-1091.32-2782.78-1091.48-2784.39-1091.52-2785.35-1092.28-2785.36-1092.29-2785.36-1092.3-2785.36-1092.32-2785.36-1092.34-2785.35-1092.36-2785.33-1092.37-2784.22-1092.84-2782.94-1092.62-2781.75-1092.74-2779.58-1092.8-2777.46-1092.9-2775.47-1093.02-2774.96-1093.23-2774.37-1093.31-2773.83-1093.13-2772.86-1093.2-2771.82-1093.31-2770.83-1093.39-2769.94-1093.41-2769.08-1093.64-2768.19-1093.71-2767.07-1093.72-2765.94-1092.58-2766.89-1091.47-2767.55-1090.69-2768.29-1090.84-2769.13-1090.81-2770.14-1090.77-2771.14-1090.74-2772.13-1090.74-2772.07-1088.89-2773.25-1087.26-2774.69-1086.2-2774.92-1086.02-2775.2-1085.92-2775.48-1085.92L-2775.48-1085.92Z" transform="matrix(1.00347 0 0 1 3644.92 1539.62)"/><path d="M-2760.78-1099.77C-2761.67-1099.95-2762.04-1100.82-2762.18-1101.51-2762.33-1102.29-2762.32-1103.1-2762.16-1103.89-2761.75-1105.7-2760.53-1107.31-2758.86-1108.14-2755.54-1109.94-2749.02-1107.95-2749.45-1103.55-2749.53-1103.14-2749.77-1102.77-2750.11-1102.53-2750.45-1102.31-2750.83-1102.19-2751.24-1102.2-2752.16-1102.18-2753.13-1102.81-2753.19-1103.78-2754.12-1105.12-2756.46-1105.53-2757.92-1104.6-2758.66-1104.13-2759.3-1103.33-2759.78-1102.23-2759.91-1101.92-2760.02-1101.6-2760.1-1101.28-2760.24-1100.76-2760.4-1100.21-2760.72-1099.79-2760.74-1099.77-2760.77-1099.76-2760.78-1099.77L-2760.78-1099.77Z" transform="matrix(1.00347 0 0 1 3644.92 1539.62)"/></g></svg>